<svg height="240" viewBox="0 0 160 240" width="160" xmlns="http://www.w3.org/2000/svg" xmlns:xlink="http://www.w3.org/1999/xlink"><defs><path id="a" d="m0 15.0429903c13.3671046-10.0286602 31.4186929-15.0429903 54.1547651-15.0429903 22.7360721 0 40.7876605 5.0143301 54.1547649 15.0429903v64.4699584c-17.291203 22.9913673-35.6831927 34.4870513-55.1759691 34.4870513-19.4927763 0-37.2039633-11.495684-53.1335609-34.4870513z"/><mask id="b" fill="#fff"><use fill="#fff" fill-rule="evenodd" xlink:href="#a"/></mask></defs><g fill="none" fill-rule="evenodd"><g transform="translate(20 43)"><g fill="#6d5710"><path d="m31 120h58v36l-29 19.440402-29-19.440402z"/><path d="m9 11.2148438c12-7.47656255 28.8333333-11.2148438 50.5-11.2148438s38.5 3.73828125 50.5 11.2148438l-10 43h-81z"/><path d="m0 39.626463c14.7741682-11.0843087 34.7259238-16.626463 59.8552667-16.626463s45.0810983 5.5421543 59.8552663 16.626463v71.25627c-19.111329 25.411511-39.4393181 38.117267-60.9839657 38.117267-21.5446475 0-41.1201699-12.705756-58.7265673-38.117267z"/></g><g transform="translate(6 29)"><use fill="#3c3008" xlink:href="#a"/><path d="m49.2376249 112.718409 1.0288468-42.5863379-2.2980641-2.0141095v-17.1560897c-3.9485059-2.4351902-7.9379751-2.0610387-11.9684076 1.1224545s-6.1050865 6.9039798-6.2239619 11.1614596l-1.8379919 1.9487164c-6.3998001-8.1712767-9.7085939-15.7727836-9.9263815-22.8045206-.2177875-7.0317371 2.6140929-14.8283977 8.4956414-23.3899818l3.268732 2.2118277c2.2771402 4.7195915 5.1960337 8.2536434 8.7566806 10.6021557 3.560647 2.3485122 6.7058766 2.3485122 9.4356889 0l2.2980641-3.3950594h7.4670566l2.2980641 3.3950594c2.7298123 2.3485122 5.8750419 2.3485122 9.4356889 0 3.5606469-2.3485123 6.4795404-5.8825642 8.7566806-10.6021557l3.268732-2.2118277c5.8815485 8.5615841 8.7134289 16.3582447 8.4956414 23.3899818-.2177876 7.031737-3.5265814 14.6332439-9.9263815 22.8045206l-1.8379919-1.9487164c-.1188754-4.2574798-2.1935294-7.9779664-6.2239619-11.1614596s-8.0199017-3.5576447-11.9684076-1.1224545v17.1560897l-2.2980641 2.0141095 1.0288468 42.5863379-4.7623751 6.281591z" fill="#ffe86e" mask="url(#b)"/></g></g><g fill="#ffe86e" transform="translate(44 13)"><path d="m57 0 15 21-15 21-15-21z"/><path d="m15 0 15 21-15 21-15-21z"/></g></g></svg>