<svg height="240" viewBox="0 0 160 240" width="160" xmlns="http://www.w3.org/2000/svg"><g fill="none" fill-rule="evenodd"><path d="m32 57.3209354c11.7432098-14.2139569 27.6926103-21.3209354 47.8482015-21.3209354 20.1555915 0 36.1049915 7.1069785 47.8482015 21.3209354v108.2467506l-47.9235036 38.432314-47.7728994-38.432314z" fill="#625549"/><path d="m46 67.9823818c8.2520419-9.9882545 19.4598057-14.9823818 33.6232913-14.9823818s25.3712497 4.9941273 33.6232917 14.9823818v84.0109422l-33.6762071 27.006676-33.5703759-27.006676z" fill="#7e7468"/><path d="m79.7092325 157.243411c-1.142972-3.005204-2.044767-5.756557-2.705385-8.25406-.7156696-2.705628-1.5996724-7.116277-2.6520083-13.231947v-32.45498l-2.2664535-.98112c-1.7080687-.099873-2.9420814.02576-3.702038.3769-.7599567.351141-1.5494482 1.160473-2.3684748 2.427998-1.0017058-.097727-1.6164063-.296485-1.8441015-.596276-.2276952-.29979-.2276952-.910364 0-1.831722.6225922-.563884 1.9128701-1.338835 3.8708337-2.324851 1.2908426-.6500593 4.5150523-1.3750958 6.3102341-2.1703217.6185126-.2739874 1.0532352-.7035571 1.3041677-1.2887089.4479538-.1534205.6719307-1.0725615.6719307-2.7574232 0-2.5272924-.3854738-11.3666793 0-13.4326494.2569825-1.3773134.6933175-2.8692079 1.309005-4.4756836-.8142831-.829989-1.3411781-1.5770673-1.5806853-2.2412348-.1474404-.4088612-.5471398-1.5900859-.4002504-2.6551788.2110287-1.530165 1.090064-3.0326227 1.5761875-3.4528689.5496644-.4751764 1.4722663-.7749376 2.7678056-.8992837 1.2955393.1243461 2.2181412.4241073 2.7678056.8992837.4861235.4202462 1.3651588 1.9227039 1.5761875 3.4528689.1468894 1.0650929-.25281 2.2463176-.4002504 2.6551788-.2395072.6641675-.7664022 1.4112458-1.5806853 2.2412348.6156875 1.6064757 1.0520225 3.0983702 1.309005 4.4756836.3854738 2.0659701 0 10.905357 0 13.4326494 0 1.6848617.2239769 2.6040027.6719307 2.7574232.2509325.5851518.6856551 1.0147215 1.3041677 1.2887089 1.7951818.7952259 5.0193915 1.5202624 6.3102341 2.1703217 1.9579636.986016 3.2482415 1.760967 3.8708337 2.324851.2276952.921358.2276952 1.531932 0 1.831722-.2276952.299791-.8423957.498549-1.8441015.596276-.8190266-1.267525-1.6085181-2.076857-2.3684748-2.427998-.7599566-.35114-1.9939693-.476773-3.702038-.3769l-2.2664535.98112v32.45498c-1.0523359 6.11567-1.9363387 10.526319-2.6520083 13.231947-.7156695 2.705629-1.714387 5.709178-2.9961525 9.010649z" fill="#ffddb6"/></g></svg>