<svg height="240" viewBox="0 0 160 240" width="160" xmlns="http://www.w3.org/2000/svg" xmlns:xlink="http://www.w3.org/1999/xlink"><defs><circle id="a" cx="57" cy="57" r="57"/><mask id="b" fill="#fff"><use fill="#fff" fill-rule="evenodd" xlink:href="#a"/></mask></defs><g fill="none" fill-rule="evenodd"><g transform="translate(17 43)"><g fill="#6f472f"><path d="m34 120h58v36l-29 19.440402-29-19.440402z"/><path d="m12 11.2148438c12-7.47656255 28.8333333-11.2148438 50.5-11.2148438s38.5 3.73828125 50.5 11.2148438l-10 43h-81z"/><circle cx="63" cy="83" r="63"/></g><g transform="translate(6 26)"><use fill="#3d2719" xlink:href="#a"/><path d="m52.3080603 116v-38.8944923c-5.7958086-1.2265305-9.3348752-2.4092122-10.6171998-3.5480451-7.3063175-6.4887434-7.6716333-12.6650639-7.6898991-25.3967512l-.0009614-2.0657444c0-21.0718427 7.3863025-29.1025169 7.6817546-29.4153151l.0091059-.0095528c-1.3439169 16.2767862-1.8988934 27.0139247-1.6649296 32.2114152.5745965 12.7646243 3.1903338 16.9368831 3.7645149 17.7064638l.0391719.0514196c.0469552.060269.0724741.0878087.0724741.0878087 2.2903045 2.1865447 3.8370413 3.3154536 4.6402106 3.3867267.9436518.0837396 2.0494908-.4057052 3.317517-1.4683344.7359576.2425213 1.472267-3.6236217 2.2089281-11.598429-.2286354-14.3664377.7484487-29.0488276 2.9312525-44.0471697l.2465111 1.7291758c2.0096694 14.3981136 2.9045832 28.5041115 2.6847414 42.3179939.7366611 7.9748073 1.4729705 11.8409503 2.2089281 11.598429 1.2680262 1.0626292 2.3738652 1.552074 3.317517 1.4683344.8031693-.0712731 2.3499061-1.200182 4.6402106-3.3867267 0 0 .0255189-.0275397.0724741-.0878087l.0391719-.0514196c.5741811-.7695807 3.1899184-4.9418395 3.7645149-17.7064638.2339638-5.1974905-.3210127-15.934629-1.6649296-32.2114152l.0091059.0095528c.2954521.3127982 7.6817546 8.3434724 7.6817546 29.4153151 0 .176852 0 .3525064-.000015.526979l-.0009464 1.5387654c-.0182658 12.7316873-.3835816 18.9080078-7.6898991 25.3967512-1.2823246 1.1388329-4.8213912 2.3215146-10.6171998 3.5480451v38.8944923z" fill="#ffa672" mask="url(#b)"/></g></g><g fill="#ffa672" transform="translate(31 3)"><path d="m83.8080495 12 15 21-15 21-15-21z"/><path d="m49.4040248 0 15 21-15 21-15-21z"/><path d="m15 12 15 21-15 21-15-21z"/></g></g></svg>