<svg height="240" viewBox="0 0 160 240" width="160" xmlns="http://www.w3.org/2000/svg"><g fill="none" fill-rule="evenodd"><g transform="translate(17 43)"><g fill="#004e9d"><path d="m34 120h58v55.440402l-29-17.680228-29 17.680228z"/><path d="m12 11.2148438c12-7.47656255 28.8333333-11.2148438 50.5-11.2148438s38.5 3.73828125 50.5 11.2148438l-10 43h-81z"/><path d="m0 40 20.9712362-20c14.3525092 4.7382813 28.1954305 4.7382813 41.5287638 0 13.6666667 4.7382813 28.4904121 4.7382813 44.471236 0l19.028764 20c-3.333333 13.8659304-5 25.0198076-5 33.4616317 0 8.4418242 1.666667 20.6212802 5 36.5383683l-63.5 42.619909-62.5-42.619909c3.33333333-16.6547536 5-28.8342097 5-36.5383683s-1.66666667-18.8580358-5-33.4616317z"/></g><path d="m6 44.0968304 18.9756453-18.0968304c12.9867463 4.2873936 25.5123962 4.2873936 37.5769498 0 12.3661675 4.2873936 25.7793078 4.2873936 40.2394209 0l17.218016 18.0968304c-3.016139 12.5464696-4.524208 22.6389608-4.524208 30.2774738s1.508069 18.0557629 4.524208 31.2517498l-57.4574369 40.373946-56.5525951-40.373946c3.01613841-13.8634573 4.5242076-24.2807072 4.5242076-31.2517498s-1.50806919-17.0635338-4.5242076-30.2774738z" fill="#000" opacity=".446382"/><path d="m113.658 37.973-47.308 46.999.005.005zm-102.317 0 46.9709681 46.6733991c.0002326-.0033373.0004647-.006673.0006963-.010007zm106.756068-3.9813793c1.046206.9158667 1.641724 1.7052512 1.786552 2.3681537.155173.7102526.155173 1.8248788 0 3.3438786-.609648-.1648833-1.287557-.1648833-2.033725 0-.746168.1648832-1.784002.5440167-3.113504 1.1374005l-2.058035 1.923241c-4.335126 4.1722934-7.568181 7.6212999-9.699165 10.3470195-2.130985 2.7257196-2.82939 4.3054023-2.095217 4.7390481.795015.5693216 1.695418 2.0643648 2.701209 4.4851293.173413.4173732.360749.8762548.562009 1.3766448l.248195.620392c.934556 2.3478255 2.138677 5.4992534 3.612363 9.4542837-.991562 1.0229701-1.721602 1.5837404-2.190122 1.6823109-.46852.0985704-1.212668-.0409183-2.232445-.4184661-.093528-3.1395504-.597787-5.3409578-1.512775-6.6042222-.914988-1.2632643-2.9591513-2.5802971-6.1324906-3.9510984l-25.7619174 24.4596639 28.4393683 29.5873c2.4455527 3.438006 4.3519547 6.283268 5.7192057 8.535787 1.367251 2.25252 2.588393 4.559824 3.663426 6.921913l-41.627-41.355-.003.01 41.255242 40.995507c-2.376568-1.068483-4.698016-2.282185-6.964343-3.641106-2.2663268-1.358922-5.1290301-3.253709-8.5881096-5.684362l-26.3977894-25.064039-.175 44.531969-3.5 2.207031-3.5-2.207031-.172-43.586969-25.4007894 24.119039c-3.2770227 2.302724-6.0187936 4.124505-8.2253127 5.465342l-.3627971.21902c-2.266327 1.358921-4.5877746 2.572623-6.9643427 3.641106l40.4922419-40.238507-.003-.01-40.864 40.598c.9406536-2.066828 1.9931721-4.091711 3.1575556-6.07465l.5058704-.847263c1.3672513-2.252519 3.2736532-5.097781 5.7192057-8.535787l28.4383683-29.5883-25.7609174-24.4586639c-3.1733393 1.3708013-5.217503 2.6878341-6.132491 3.9510984-.9149881 1.2632644-1.4192464 3.4646718-1.512775 6.6042222-1.0197767.3775478-1.7639249.5170365-2.2324446.4184661-.4685196-.0985705-1.1985602-.6593408-2.1901216-1.6823109 1.473686-3.9550303 2.6778068-7.1064582 3.6123625-9.4542837l.2481953-.620392c.20126-.50039.3885961-.9592716.5620084-1.3766448 1.0057914-2.4207645 1.9061944-3.9158077 2.701209-4.4851293.7341738-.4336458.0357684-2.0133285-2.0952162-4.7390481-2.1309845-2.7257196-5.3640397-6.1747261-9.6991655-10.3470195l-2.0580349-1.923241c-1.32950161-.5933838-2.3673364-.9725173-3.11350435-1.1374005-.74616795-.1648833-1.42407617-.1648833-2.03372464 0-.15517335-1.5189998-.15517335-2.633626 0-3.3438786s.82771903-1.5657016 2.01763705-2.5663468c1.27131033-.9642764 2.26426868-1.5235287 2.97887504-1.6777566.7146064-.154228 1.836065-.154228 3.364376 0-.165894.6059342-.165894 1.2797122 0 2.0213342.1658939.7416219.5473515 1.7731337 1.1443726 3.0945354l1.9350301 2.0454963c4.1978688 4.3087142 7.6680171 7.5220721 10.4104449 9.6400737 2.7424277 2.1180015 4.3317936 2.8121519 4.7680976 2.0824511.5728115-.7901711 2.0770189-1.6850884 4.5126224-2.684752 2.4356034-.9996636 6.2761084-2.4648708 11.521515-4.3956218 1.0292407.9855203 1.5934484 1.7111131 1.6926231 2.1767784.0991747.4656652-.041169 1.2052797-.4210312 2.2188434-3.1587953.0929588-5.3736969.594145-6.6447049 1.5035584-1.2710079.9094135-2.5961139 2.9411232-3.9753179 6.095129l18.3725577 19.1141477c.9821918-3.6884893 1.4048699-6.6610374 1.2680344-8.9176443-.2151875-3.5487402-1.2356914-9.2644935-3.0615119-17.1472601l.0007784-.0147675c.0180191-.3297732.3697059-6.1815748 3.1888959-17.4433287.4319688-1.7255762 1.3859835-4.4448028 2.8620439-8.1576799l.3642778-.9101686c.1871506-.4646233.3818185-.9435552.584004-1.4367957.2021855.4932405.3968534.9721724.584004 1.4367957l.3642778.9101686c1.4760604 3.7128771 2.4300751 6.4321037 2.8620439 8.1576799 2.9033449 11.5979257 3.1896743 17.4580962 3.1896743 17.4580962-1.8258205 7.8827666-2.8463244 13.5985199-3.0615119 17.1472601-.1446667 2.385755.3360559 5.5717445 1.442168 9.5579683-.0749532.1482781-.1475968.2972167-.2179309.4468155l19.416355-20.2012872c-1.379204-3.1540058-2.70431-5.1857155-3.9753179-6.095129-1.271008-.9094134-3.4859096-1.4105996-6.6447049-1.5035584-.3798622-1.0135637-.5202059-1.7531782-.4210312-2.2188434.0991747-.4656653.6633824-1.1912581 1.6926231-2.1767784 5.2454066 1.930751 9.0859116 3.3959582 11.521515 4.3956218 2.4356035.9996636 3.9398109 1.8945809 4.5126224 2.684752.436304.7297008 2.0256699.0355504 4.7680976-2.0824511 2.7424277-2.1180016 6.2125757-5.3313595 10.4104447-9.6400737l1.93503-2.0454963c.597021-1.3214017.978479-2.3529135 1.144373-3.0945354.165894-.741622.165894-1.4154 0-2.0213342 1.528311-.154228 2.64977-.154228 3.364376 0 .714606.1542279 1.707565.7134802 2.978875 1.6777566z" fill="#c7d9ff"/></g><g fill="#c7d9ff" transform="translate(44 13)"><path d="m57 0 15 21-15 21-15-21z"/><path d="m15 0 15 21-15 21-15-21z"/></g></g></svg>