<svg height="240" viewBox="0 0 160 240" width="160" xmlns="http://www.w3.org/2000/svg"><g fill="none" fill-rule="evenodd"><circle cx="80" cy="128" fill="#7e1600" r="63"/><path d="m51 168h58v36l-29 19.440402-29-19.440402z" fill="#7e1600"/><g fill="#856100"><path d="m51 163h58v55.440402l-29-17.680228-29 17.680228z"/><path d="m30 54.2148438c12-7.4765626 28.8333333-11.2148438 50.5-11.2148438 21.666667 0 38.5 3.7382812 50.5 11.2148438l-10 43h-81z"/><path d="m33.6496945 76.4652514c10.9332098-7.6435009 26.3833116-11.4652514 46.3503055-11.4652514l-.0241345 136c-.6748194 0-15.0805128-12.391517-43.2170801-37.174552 1.2736041-8.428291.9476143-16.851039-.9779692-25.268246s-6.1858555-15.51195-12.7808162-21.28423c4.0729347-9.228824 6.7423004-16.268388 8.0080971-21.1186945 1.2657967-4.8503061 2.1463292-11.4133148 2.6415974-19.6890261zm92.7006115 0c-10.93321-7.6435009-26.3833121-11.4652514-46.350306-11.4652514l.0241345 136c.3293649 0 14.7350582-12.391517 43.2170805-37.174552-1.273604-8.428291-.947615-16.851039.977969-25.268246 1.925583-8.417207 6.185855-15.51195 12.780816-21.28423-4.072935-9.228824-6.7423-16.268388-8.008097-21.1186945-1.265797-4.8503061-2.146329-11.4133148-2.641597-19.6890261z"/></g><path d="m80 69-.0224409 124-38.287885-31.8569c1.1494186-8.918258.8289005-17.214643-.9615544-24.889155-1.7904548-7.674512-6.3664947-15.178289-13.7281197-22.511332 3.7871147-6.469157 6.2691565-11.914904 7.4461254-16.3372423 1.1769689-4.4223379 1.9957096-10.4062577 2.4562221-17.9517592 10.165967-6.9690743 24.5318512-10.4536115 43.0976525-10.4536115zm0 0c18.5658013 0 32.931685 3.4845372 43.097653 10.4536115.460512 7.5455015 1.279253 13.5294213 2.456222 17.9517592 1.176968 4.4223383 3.65901 9.8680853 7.446125 16.3372423-7.361625 7.333043-11.937665 14.83682-13.72812 22.511332s-2.110973 15.970897-.961554 24.889155l-38.2878851 31.8569z" fill="#000" opacity=".446382"/><g fill="#f0be2a" transform="translate(44 13)"><path d="m57 0 15 21-15 21-15-21z"/><path d="m15 0 15 21-15 21-15-21z"/></g><path d="m81.1990586 61c.9340075.2763948 1.5114151.5629695 1.7322229.8597241s.2208078.7861868 0 1.4682968c.4851912.3257348.8277613.6062352 1.0277103.8415012.199949.2352659.4255558.6232995.6768204 1.1641006 1.7409301-.5276732 3.0707001-.7453256 3.9893099-.6529572.677343.0681084 2.8429289.4847645 4.2458542 2.0187728 1.4510372 1.5866155 2.1290237 4.3106682 2.1290237 5.5283956 0 1.5967192-.8613139 3.8740408-2.5839417 6.8319647l-4.6400911 9.1722544c.2605467.2010943.4432183.4125522.548015.6343736.1047967.2218213.2051767.609494.3011399 1.1630181l-2.774677 2.1818768c-.301503.521005-.5008143 1.4056277-.5979339 2.6538681-.0971195 1.2482403-.0971195 2.9252886 0 5.0311449l1.3485628 1.8901295c-.3031564.860478-.553366 1.45173-.7506289 1.773756-.1972628.322027-.4776468.596955-.841152.824785l.0707069 22.823995 20.096429-20.272311c-.081452-.834517-.024607-1.32839.170535-1.481619 2.247041-1.764415 2.247041-5.289536.980182-8.1552856-1.405623-3.1796483-3.748505-4.8912658-7.0286445-5.1348526-.3503982-1.6004376-.6320924-2.8666692-.8450826-3.7986948-.2129902-.9320257-.5402868-2.3306823-.9818897-4.1959698 1.7448532.6309954 3.0772208 1.0523648 3.9971038 1.2641081.919883.2117434 2.21266.3946435 3.878331.5487004 1.32294 4.1550455 3.149575 6.7254117 5.479907 7.7110984 2.220016 1.1141999 4.849618.8521671 7.888807-.7860983l1.757592-.8095612c1.92603-1.1417962 3.259435-2.1208831 4.000213-2.9372606.740779-.8163775 1.562274-2.2121053 2.464486-4.1871836l11.038073-6.9740704c-1.81713 2.7368527-3.146682 4.8318535-3.988656 6.2850024s-1.652607 3.0518576-2.431898 4.7961259c-2.170912 1.1374849-3.710085 2.1654194-4.617519 3.0838035-.907433.918384-1.766366 2.3174945-2.576798 4.1973313l-2.768686 2.8020973c.673238 2.4460296 2.79167 4.4682616 6.355297 6.0666956s6.598373 1.673105 9.104237.224014l3.947981-1.764415c-.472338 6.941475-2.809876 12.313659-7.012614 16.116554-4.202738 3.802894-9.733607 6.5677-16.592606 8.294416l.770483-4.108923c3.020049-2.519646 3.331575-5.927395.934578-10.223248-2.396996-4.295852-4.743427-5.957104-7.039293-4.983755-.514123.921591-.925349 1.508149-1.233677 1.759676-.308329.251526-.616124.251526-.923387 0l-24.798484 24.412625.003 1.132 25.636053 26.426586c3.87992 4.426432 6.628576 7.744883 8.245969 9.955352 1.617393 2.21047 3.620719 5.38649 6.009978 9.528062-1.610836-.847965-3.085921-1.641878-4.425255-2.381739l-.872777-.485232c-2.700109-1.511212-4.795202-2.781525-6.285278-3.810937-2.352751-1.625388-5.270739-4.082725-8.753963-7.37201l-19.513727-18.883082.1035112 32.945703c1.5219633.840638 2.3572011 1.386748 2.5057136 1.638329l.0177424.037276c.0802375.232187.0802375.689744 0 1.372672l-.8415163.558955c1.1777538 3.648281 1.640931 5.748185 1.3895313 6.299712-.2513996.551527-.8257023.911645-1.7229082 1.080353h-10.3530977c-1.2442417-.407584-1.921305-.875776-2.0311899-1.404576-.1098848-.528801.2031712-2.52063.939168-5.975489l-.6616015-.887857c-.1056009-.508798-.1056009-.856721 0-1.04377.1056008-.187049.4131736-.383924.9227181-.590624l2.1565241-1.334147-.0005951-39.389537-29.7869648 29.325158c-.0185881.785855-.1415245 1.260041-.3688092 1.422559s-.7675069.162518-1.6206667 0l-1.9142035 4.037965-6.8823558.840318 1.4239109-6.19647 4.4928142-1.968805c-.1975318-.879036-.1975318-1.423891 0-1.634565.1975317-.210674.708397-.210674 1.5325957 0l29.6056792-29.86816-27.7691065-26.872373c-.3355058-.589894-.6493602-.970352-.9415631-1.141373-.292203-.171021-.7718382-.254979-1.4389056-.251873l-.8183071 1.66069-8.9698695 7.660484c-.0971095 1.111335-.2625775 1.781428-.4964042 2.010277-.2338266.228848-.7530264.228848-1.5575992 0-1.0483692.202546-1.6278297.123215-1.7383817-.237994s.1459709-1.337019.7695687-2.927429l2.5264122-1.11173 6.0747271-6.802425c.78691-1.263691 1.3537588-2.280626 1.7005463-3.050807s.7601494-1.930197 1.2400859-3.480048l-13.7582663-14.8785634c-.9801711-.9782238-1.6586428-1.4673356-2.035415-1.4673356-.3767721 0-.536628-.4045123-.4795677-1.2135369-1.6297095-.84965-2.8940352-1.4943723-3.7929768-1.9341666-.8989416-.4397944-2.0761809-.9895729-3.5317178-1.6493356-.0510129-1.4127903-.0510129-2.4107863 0-2.9939879.051013-.5832017.1857869-1.1259988.4043219-1.6283913l.6324465-.8312637c.6835388-.4115386 1.3079008-.6846521 1.8730859-.8193407s1.606474-.2585144 3.1238669-.3714773c.8728819 1.9860202 1.5452198 3.4465209 2.0170136 4.3815022.4717938.9349812 1.068108 1.9886419 1.7889425 3.1609821.7715749-.1835935 1.1573624-.0581851 1.1573624.3762254s.4388084 1.0488822 1.3164252 1.8434149l14.9341689 13.3998904c2.7685043-.6515759 4.9909838-1.2867454 6.6674386-1.9055085 1.5397623-.9067157 3.9920568-3.3231143 7.3568834-7.2491957.606829-1.6375085 1.7206654-2.3966633 3.3415092-2.2774644 1.6208439.119199 1.6208439.8007062 0 2.0445217.6263726.4029587.9395589.7370062.9395589 1.0021424s-.3131863.6364047-.9395589 1.1138054l-8.6513088 8.5106921-1.8032518 1.011127c-.0816978.690355-.0816978 1.204102 0 1.541242.0816979.33714.2735608.615147.5755889.834022l23.800247 24.533601.0005951-23.935995c-.4323081-.446134-.7588647-.816779-.9796697-1.111934l-.0881561-.121873c-.2178175-.312671-.4652866-.767583-.7424073-1.364734l1.1962322-1.8901295c.1144535-2.3463699.1144535-4.137567 0-5.3735912-.1144536-1.2360242-.3516595-2.0064981-.7116179-2.3114218l-2.6896095-1.9404685c.0792583-.621036.1820112-1.0891782.3082584-1.4044264.1262473-.3152483.3354899-.6261804.6277277-.9327962l-4.6578605-8.8738318c-1.9370264-3.3496451-2.8819636-5.8817264-2.8348116-7.596244.0389779-1.4172966 1.1201965-3.8815474 2.8348116-5.3108034 1.396665-1.1642215 3.4084715-1.4524915 4.0301328-1.4720857.9232292-.0290993 2.296546.1885531 4.1199505.6529572.0574466-.7027227.1795111-1.1789839.3661936-1.4287838.1866824-.2497998.5642322-.4420725 1.1326493-.576818-.2009785-.7058305-.2009785-1.1952628 0-1.4682968.2009785-.2730341.7721918-.5596088 1.71364-.8597241z" fill="#f0be2a"/></g></svg>