<svg height="240" viewBox="0 0 160 240" width="160" xmlns="http://www.w3.org/2000/svg"><g fill="none" fill-rule="evenodd"><g transform="translate(26 43)"><g fill="#396989"><path d="m25 120h58v55.440402l-29-17.680228-29 17.680228z"/><path d="m3 11.2148438c12-7.47656255 28.8333333-11.2148438 50.5-11.2148438s38.5 3.73828125 50.5 11.2148438l-10 43h-81z"/><path d="m0 37.5c13.3289037-11.6666667 31.3289037-17.5 54-17.5s40.6710963 5.8333333 54 17.5c-1.622646 36.1488106-1.622646 64.482144 0 85-12.8002544 16.78317-39.2525183 30.119909-55.0182857 30.119909-15.7657675 0-40.8610985-13.783951-52.9817143-30.119909 1.84841053-20.815998 1.84841053-49.1493311 0-85z"/></g><path d="m7 41.8347266c11.4567096-10.5564844 26.9284078-15.8347266 46.4150943-15.8347266 19.4866866 0 34.9583847 5.2782422 46.4150944 15.8347266-1.394727 32.7089448-1.394727 58.3461214 0 76.9115294-11.0023151 15.186109-33.7390618 27.253744-47.2903504 27.253744s-35.1216989-12.472291-45.5398383-27.253744c1.58878054-18.8351792 1.58878054-44.4723556 0-76.9115294z" fill="#000" opacity=".446382"/><path d="m53.6704906 152.356241c-1.8696825-4.137201-3.1651205-7.818104-3.886314-11.042709-.7612599-3.403749-1.2569467-7.595312-1.4870606-12.574688-5.933609-3.323519-11.7128586-8.927425-17.3377488-16.811721-5.6248902-7.884295-9.9446793-22.8567255-12.9593672-44.9172922 3.3941786-.8069369 5.9190252-1.4427853 7.5745399-1.9075452 1.6555146-.4647599 3.9254193-1.1749631 6.809714-2.1306096.1366497-1.2686518-.0558648-2.1820346-.5775437-2.7401483-.5216789-.5581138-1.7377077-1.1516494-3.6480866-1.7806068v-2.2035957c2.9755954-1.2173057 5.5491236-2.0859999 7.7205847-2.6060826 2.171461-.5200826 6.0541205-1.1976981 11.6479782-2.0328464v-3.997997c-1.8681078-.7401955-3.9612581-.9898721-6.2794511-.7490299-2.318193.2408421-5.6252582 1.3104955-9.9211955 3.2089601l-1.6009981-4.3262678c1.4054405-1.2171661 3.4566626-2.2623115 6.1536665-3.1354361 2.6970038-.8731246 7.3319932-1.6904771 13.9049683-2.4520577.4430154-2.3986451.7838833-4.762638 1.0226038-7.0919785.2387204-2.3293406.434025-7.2396982.5859138-14.7310729-1.3590642-1.5473641-2.1709204-2.7325582-2.4355686-3.555582s.0110354-1.3644981.827051-1.624423c-.2588252-.8999565-.0743599-1.5854237.5533958-2.0564015.6277558-.4709778 1.8443721-.8366811 3.649849-1.0971099 1.8054769.2604288 3.0220932.6261321 3.6498489 1.0971099.6277558.4709778.8122211 1.156445.5533959 2.0564015.8160155.2599249 1.0916992.8013992.827051 1.624423s-1.0765045 2.0082179-2.4355686 3.555582c.1518887 7.4913747.3471933 12.4017323.5859138 14.7310729.2387205 2.3293405.5795884 4.6933334 1.0226038 7.0919785 6.572975.7615806 11.2079645 1.5789331 13.9049683 2.4520577s4.748226 1.91827 6.1536665 3.1354361l-1.6009981 4.3262678c-4.2959374-1.8984646-7.6030026-2.968118-9.9211955-3.2089601-2.318193-.2408422-4.4113434.0088344-6.2794512.7490299v3.997997c5.5938578.8351483 9.4765172 1.5127638 11.6479783 2.0328464 2.1714611.5200827 4.7449893 1.3887769 7.7205846 2.6060826v2.2035957c-1.9103788.6289574-3.1264077 1.222493-3.6480865 1.7806068-.5216789.5581137-.7141935 1.4714965-.5775437 2.7401483 2.8842947.9556465 5.1541993 1.6658497 6.809714 2.1306096 1.6555146.4647599 4.1803613 1.1006083 7.5745399 1.9075452-3.014688 22.0605667-7.334477 37.0329972-12.9593672 44.9172922-5.6248902 7.884296-11.4041398 13.488202-17.3377489 16.811721-.2301138 4.979376-.7258007 9.170939-1.4870605 12.574688-.7612598 3.40375-2.1623414 7.315906-4.2032448 11.736468z" fill="#e8f7fa"/></g><path d="m15 0 15 21-15 21-15-21z" fill="#e8f7fa" transform="translate(65 8)"/></g></svg>