<svg height="240" viewBox="0 0 160 240" width="160" xmlns="http://www.w3.org/2000/svg"><g fill="none" fill-rule="evenodd"><g transform="translate(11 43)"><g fill="#4d5758"><path d="m40 120h58v36l-29 19.440402-29-19.440402z"/><path d="m18 11.2148438c12-7.47656255 28.8333333-11.2148438 50.5-11.2148438s38.5 3.73828125 50.5 11.2148438l-10 43h-81z"/><path d="m68.8908968 20c25.600235 0 47.6341012 15.269441 57.4908632 37.197588-11.462965 2.7131966-19.990863 13.0119056-19.990863 25.302412 0 12.4329687 8.726741 22.827698 20.389042 25.393004-9.649112 22.414355-31.9364707 38.106996-57.8890422 38.106996-25.9525714 0-48.2399303-15.692641-57.8908968-38.106742 11.6643633-2.565808 20.3908968-12.9604375 20.3908968-25.393258 0-12.2903603-8.5276951-22.5889706-19.988903-25.3016488 9.8548021-21.9289102 31.8886681-37.1983512 57.488903-37.1983512z"/></g><path d="m68.3351398 26c21.1726207 0 39.6008872 11.7499764 49.1197402 29.0848696-10.138572 4.9573739-17.11974 15.3709825-17.11974 27.4151304 0 11.8699145 6.780647 22.156124 16.679821 27.196509-9.636799 16.906127-27.8273116 28.303491-48.6798212 28.303491-21.0194875 0-39.3341751-11.580625-48.9118065-28.709619 9.4804193-5.172165 15.9118065-15.2302074 15.9118065-26.790381 0-11.7318989-6.6238817-21.9167073-16.3357878-27.0185679 9.4538262-17.551455 28.0016093-29.4814321 49.3357878-29.4814321z" fill="#000" opacity=".446382"/><path d="m68 14.001 4.4994591 13.7764655c-1.6306064 1.9576392-2.6457932 3.485019-3.0455603 4.5821393l-.0580068.169654c-.352617 1.1071893-.352617 2.7715765 0 4.9931618l-.000892 7.4255794.2873797-.0162726c2.0238579-.128669 3.8381844-.3544567 5.4429796-.6773632 1.7831057-.358785 4.151149-1.1109064 7.1041297-2.2563642 4.1065099.0867525 7.3713137.69261 9.7944114 1.8175725.6692838-1.1800347 1.0542752-2.1809234 1.1545281-3.0033729.1409105-1.1559933-.1491113-3.0389828-.8700654-5.6489683l9.9966469-10.5431017-1.650764 14.4348506c-2.4627855 1.1253836-4.0916616 2.1135763-4.8866283 2.9645782-.597864.6400058-1.1439555 1.6518972-1.6382746 3.0356743 2.2797758 1.6278797 5.057731 4.4209159 8.3335669 8.3807158 7.890819 10.0206797 14.02146 16.6544957 18.391924 19.9014483 4.370465 3.2469525 10.08552 5.4136696 17.145166 6.5001514-7.477569.3740744-12.80221.0940661-15.973924-.8400248l-43.502076-.0005234-8.185 17.553 11.5301482 24.727669 10.9709365 12.379082-.140617 14.22656-10.9885641-9.036938-2.4309445-16.361345-9.8849591-21.197028.000892 20.021248 4.604108 15.855091-6 12.831661-6-12.831661 4.604108-15.855091-.000108-16.750248-8.3580471 17.926028-2.4309446 16.361345-10.9885641 9.036938-.140617-14.22656 10.9709365-12.379082 10.9472363-23.478669v-2.496l-7.603-16.306-43.0270762.0005234c-3.171714.9340909-8.49635522 1.2140992-15.9739238.8400248 7.05964632-1.0864818 12.7747015-3.2531989 17.1451655-6.5001514 4.3704641-3.2469526 10.5011054-9.8807686 18.3919241-19.9014483 3.0974713-3.7441939 5.7498033-6.4452226 7.956996-8.1030862-.5202414-1.5267215-1.0986138-2.6312135-1.7357913-3.3133039-.7949668-.8510019-2.4238428-1.8391946-4.8866281-2.9645782l-1.6507639-14.4348506 9.9966465 10.5431017c-.720954 2.6099855-1.0109758 4.492975-.8700654 5.6489683.1053106.8639408.5248134 1.9247789 1.2585086 3.1825143 2.4571948-1.2399372 5.8452694-1.9054671 10.164519-1.9967139 2.9529807 1.1454578 5.321024 1.8975792 7.1041297 2.2563642 1.1374309.2288664 2.3801208.4089448 3.7280699.5402351l.0013974-7.2721787c.352617-2.2215853.352617-3.8859725 0-4.9931618-.3526169-1.1071893-1.3871393-2.6911204-3.1035671-4.7517933l4.4984591-13.7764655zm7.372 64.996h-5.977v12.817zm-8.768 0h-4.451l4.451 9.545zm-22.2228896-25.5610515c-.0744489.0559074-.1484681.1112778-.222199.1662691l-.220469.1639946-.2195867.1626675c-.0365714.0270534-.0731413.0540908-.1097275.0811323l-.2198528.1624534c-3.3416722 2.4693816-7.1101683 5.2981641-24.6140329 23.3609891-.1579436.1629874-.3424964.3178907-.5536581.4647098l40.3124156-.0011643-12.128815-26.0137725c-.6543994.4465823-1.329091.9308226-2.0240746 1.452721zm11.3894006-5.4233734c-1.8943051.0369219-4.2050624.8466938-6.9322719 2.4293156l12.8487609 27.5551093h4.917v-28.165zm26.458978 0-12.834489 2.1564249v27.828h6.443l12.9496147-27.7688496c-2.5650189-1.4418287-4.7510608-2.1803538-6.5581257-2.2155753zm9.0055454 3.7275537-12.2440344 26.2568712 40.787416.0011643c-.211162-.1468191-.395715-.3017224-.553659-.4647098-17.503864-18.062825-21.2723602-20.8916075-24.6140324-23.3609891l-.2198528-.1624534c-.0365862-.0270415-.0731561-.0540789-.1097275-.0811323l-.2195867-.1626675-.220469-.1639946c-.0737309-.0549913-.1477501-.1103617-.222199-.1662691-.8230802-.6180926-1.6176986-1.1833658-2.3838552-1.6958197z" fill="#d8d8d8"/></g><g fill="#d8d8d8" transform="translate(44 13)"><path d="m57 0 15 21-15 21-15-21z"/><path d="m15 0 15 21-15 21-15-21z"/></g></g></svg>