<svg height="240" viewBox="0 0 160 240" width="160" xmlns="http://www.w3.org/2000/svg"><g fill="none" fill-rule="evenodd"><g transform="translate(17 43)"><circle cx="63" cy="85" fill="#7e1600" r="63"/><path d="m34 125h58v36l-29 19.440402-29-19.440402z" fill="#7e1600"/><g fill="#856100"><path d="m34 120h58v55.440402l-29-17.680228-29 17.680228z"/><path d="m13 11.2148438c12-7.47656255 28.8333333-11.2148438 50.5-11.2148438s38.5 3.73828125 50.5 11.2148438l-10 43h-81z"/><path d="m16.6496945 33.4652514c10.9332098-7.6435009 26.3833116-11.4652514 46.3503055-11.4652514l-.0241345 136c-.6748194 0-15.0805128-12.391517-43.2170801-37.174552 1.2736041-8.428291.9476143-16.851039-.9779692-25.268246-1.9255835-8.4172067-6.1858555-15.5119501-12.7808162-21.2842301 4.0729347-9.2288234 6.7423004-16.2683882 8.0080971-21.1186944 1.2657967-4.8503061 2.1463292-11.4133148 2.6415974-19.6890261zm92.7006115 0c-10.9332103-7.6435009-26.3833121-11.4652514-46.350306-11.4652514l.0241345 136c.3293649 0 14.7350582-12.391517 43.2170805-37.174552-1.273604-8.428291-.947615-16.851039.977969-25.268246 1.925583-8.4172067 6.185855-15.5119501 12.780816-21.2842301-4.072935-9.2288234-6.7423-16.2683882-8.008097-21.1186944-1.265797-4.8503061-2.146329-11.4133148-2.641597-19.6890261z"/></g><path d="m63 26-.0224409 124-38.287885-31.8569c1.1494186-8.918258.8289005-17.214643-.9615544-24.889155-1.7904548-7.674512-6.3664947-15.1782892-13.7281197-22.5113316 3.7871147-6.4691572 6.2691565-11.9149048 7.4461254-16.3372427s1.9957096-10.4062577 2.4562221-17.9517592c10.165967-6.9690743 24.5318512-10.4536115 43.0976525-10.4536115zm0 0c18.5658013 0 32.9316855 3.4845372 43.097653 10.4536115.460512 7.5455015 1.279253 13.5294213 2.456222 17.9517592 1.176968 4.4223379 3.65901 9.8680855 7.446125 16.3372427-7.361625 7.3330424-11.937665 14.8368196-13.72812 22.5113316s-2.110973 15.970897-.961554 24.889155l-38.2878851 31.8569z" fill="#000" opacity=".446382"/><path d="m64 19v1.295l3.2237393 4.1736009c-1.3993744 1.4150814-2.2809754 2.6760463-2.6448032 3.7828948-.1976909.3399736-.2328904 1.0707017-.1055985 2.1921841 1.3468025-1.467011 2.4201781-2.3694006 3.2201268-2.7071688.7999487-.3377683 1.5541125-.4234725 2.2624914-.2571127.5006605.2904742.8618249.5840863 1.0834932.8808363.2216682.29675.466153.8139279.7334545 1.5515338-1.4433408.807616-2.4671681 1.4906934-3.0714818 2.0492323-.6043138.5585388-1.2066372 1.4761806-1.8069702 2.7529253 2.9109809.1882524 5.1447256.4056705 6.7012342.6522542 1.5565087.2465836 3.8049183.739233 6.7452288 1.4779481.3767281-.4577801.5650921-1.1678475.5650921-2.1302023s-.2838669-2.563074-.8516008-4.8021576c.057983-.3174199.1806732-.5225565.3680708-.61541.1873976-.0928534.5720867-.2422648 1.1540674-.4482341.5371326.6283864 1.0412159 1.3140159 1.51225 2.0568885s1.0793499 1.6792955 1.8249473 2.8092686v-6.2348831l3.240016-3.7988702 2.0172737 5.4770374-2.7582561 5.2631275c.9801591-.4572142 1.7465401-.7745081 2.299143-.9518817.5526028-.1773735 1.0388495-.262146 1.45874-.2543174l.9835673 1.2061991c-.1710608.668361-.3203767 1.0704906-.4479478 1.2063888-1.4630411 1.5585403-2.5182597 2.0995278-2.8556417 2.7669215-.3815095.7546846-.2745867 1.3970746.3207684 1.9271699.3603425 1.0257871.5405138 1.7551949.5405138 2.1882234 0 .4330284-.1801713.8975734-.5405138 1.393635v6.6059936l.9996269 1.1761102v2.7474253c.8631882 2.4024966 1.8966816 4.3348054 3.1004804 5.7969264 1.160869 1.4164988 1.4013656 2.4506356.7214897 3.1024105.6755153.8537702 1.0925023 1.5065461 1.2509612 1.9583276.2919456.8323649.1123704 1.8502523.2700257 2.4583798.2733573 1.0544271.7736868 1.7650985.9027702 3.0986176.1688141 1.7439658.4801027 3.0327046.3805625 5.0308677-.0362543.7277655 1.1418194 2.3460682 1.0049377 3.5618455-.0698842.6207085-.7179827 1.673473-1.9442956 3.1582933.9454986.9751385 1.4576333 1.7798471 1.5364041 2.4141258 1.1495831 9.2566875.3777609 16.8115851 0 21.6442271-.4165879 5.32935-2.0326602 11.432417-4.848217 18.309203-2.2626128 3.256996-4.1748399 5.589672-5.7366815 6.99803s-3.3061497 2.372885-5.2329244 2.893581c1.0081667-5.021955 2.6690033-10.307814 4.9825098-15.857577s3.5174989-10.316439 3.6119772-14.300028l.9996269-16.5392044c.0203869-1.2715266-.4658597.1810065-1.45874 4.3575993s-2.3554392 10.5011381-4.0876766 18.9736361c-1.3322899 3.411488-2.5638304 6.093045-3.6946214 8.044671-1.1307909 1.951626-2.7601554 4.207689-4.8880933 6.768189-2.9009397 2.380485-5.1823202 4.14445-6.8441414 5.291895-1.4803093 1.022116-3.5456577 2.298434-6.196045 3.828952l-.0013402.574471c-.1688903-.096289-.3356428-.191649-.5002573-.286081-.1647848.094823-.3311992.18999-.4997427.286081l-.0003298-.573888c-2.6508729-1.530777-4.716558-2.807289-6.1970554-3.829535-1.6618212-1.147445-3.9432017-2.91141-6.8441414-5.291895-2.1279379-2.5605-3.7573024-4.816563-4.8880933-6.768189-1.130791-1.951626-2.3623315-4.633183-3.6946214-8.044671-1.7322374-8.472498-3.0947963-14.7970433-4.0876766-18.9736361s-1.4791269-5.6291259-1.45874-4.3575993l.9996269 16.5392044c.0944783 3.983589 1.2984707 8.750265 3.6119772 14.300028s3.9743431 10.835622 4.9825098 15.857577c-1.9267747-.520696-3.6710828-1.485223-5.2329244-2.893581s-3.4740687-3.741034-5.7366815-6.99803c-2.8155568-6.876786-4.4316291-12.979853-4.848217-18.309203-.3777609-4.832642-1.1495831-12.3875396 0-21.6442271.0787708-.6342787.5909055-1.4389873 1.5364041-2.4141258-1.2263129-1.4848203-1.8744114-2.5375848-1.9442956-3.1582933-.1368817-1.2157773 1.041192-2.83408 1.0049377-3.5618455-.0995402-1.9981631.2117484-3.2869019.3805625-5.0308677.1290834-1.3335191.6294129-2.0441905.9027702-3.0986176.1576553-.6081275-.0219199-1.6260149.2700257-2.4583798.1584589-.4517815.5754459-1.1045574 1.2509612-1.9583276-.6798759-.6517749-.4393793-1.6859117.7214897-3.1024105 1.2037988-1.462121 2.2372922-3.3944298 3.1004804-5.7969264v-2.7474253l.9996269-1.1761102v-6.6059936c-.3603425-.4960616-.5405138-.9606066-.5405138-1.393635 0-.4330285.1801713-1.1624363.5405138-2.1882234.5953551-.5300953.7022779-1.1724853.3207684-1.9271699-.337382-.6673937-1.3926006-1.2083812-2.8556417-2.7669215-.1275711-.1358982-.276887-.5380278-.4479478-1.2063888l.9835673-1.2061991c.4198905-.0078286.9061372.0769439 1.45874.2543174.5526029.1773736 1.3189839.4946675 2.299143.9518817l-2.7582561-5.2631275 2.0172737-5.4770374 3.240016 3.7988702v6.2348831c.7455974-1.1299731 1.3539132-2.066396 1.8249473-2.8092686s.9751174-1.4285021 1.51225-2.0568885c.5819807.2059693.9666698.3553807 1.1540674.4482341.1873976.0928535.3100878.2979901.3680708.61541-.5677339 2.2390836-.8516008 3.8398028-.8516008 4.8021576s.188364 1.6724222.5650921 2.1302023c2.9403105-.7387151 5.1887201-1.2313645 6.7452288-1.4779481 1.5565086-.2465837 3.7902533-.4640018 6.7012342-.6522542-.600333-1.2767447-1.2026564-2.1943865-1.8069702-2.7529253-.6043137-.5585389-1.628141-1.2416163-3.0714818-2.0492323.2673015-.7376059.5117863-1.2547838.7334545-1.5515338.2216683-.29675.5828327-.5903621 1.0834932-.8808363.7083789-.1663598 1.4625427-.0806556 2.2624914.2571127.7999487.3377682 1.8733243 1.2401578 3.2201268 2.7071688.1272919-1.1214824.0920924-1.8522105-.1055985-2.1921841-.3638278-1.1068485-1.2454288-2.3678134-2.6448032-3.7828948l3.2237393-4.1736009v-1.295l.5.647zm-.5 96.209-5.1461784.347397c.8846088 1.769691 1.6562477 2.842279 2.3149167 3.217761.5858498.333971 1.5290858.58809 2.8297081.762356 1.304212-.174396 2.2471154-.42847 2.8328153-.762356.658669-.375482 1.4303079-1.44807 2.3149167-3.217761zm23.0590538-29.4320399c-3.9471646.9667125-7.3920942 1.5989347-10.334789 1.8966667-2.773003.2805632-6.8472673.4408812-12.222793.480954-.1694103.0052365-.3361508.0043564-.5016933.0033656l-.4997785.0026402c-5.3764938-.0460588-9.4510904-.2063792-12.2242648-.4869598-2.9426948-.297732-6.3876244-.9299542-10.334789-1.8966667l.9348125 2.3836265c1.8560179 2.9448571 3.6171268 5.085872 5.2833268 6.4230445 1.6661999 1.3371725 3.0384165 2.1681333 4.1166497 2.4928824h1.5877985c.6067277 0 3.1873993-2.2483151 7.7420148-6.7449453h6.788903c4.5546155 4.4966302 7.1352871 6.7449453 7.7420148 6.7449453h1.5877985c1.0782332-.3247491 2.4504498-1.1557099 4.1166497-2.4928824 1.6662-1.3371725 3.4273089-3.4781874 5.2833268-6.4230445zm-22.5590538-9.7769601c-.1713134.1487097-.3379388.2889416-.4998764.4206957-.1614919-.1311711-.3284541-.2716769-.5001236-.4206957l-.0002152.8119796c-.6517849.4877929-1.2173429.8196498-1.6966738.9955707-1.0647819.3907892-4.0390014.6785999-4.6080311.4484968-.3793532-.1534021-.8302379-.4918033-1.3526542-1.0152036l-.3424257 3.7591565c.420183-.3619547.7564746-.6791933 1.008875-.9517157.2524003-.2725225.5596257-.650104.9216761-1.1327447h2.3075204c1.2880087-.2444925 2.2094906-.4643233 2.764446-.6594925.4321312-.1519738.9314885-.4388217 1.4980719-.8605436.5659815.4220533 1.0650115.7086576 1.4968931.8605436.5549554.1951692 1.4764373.415 2.764446.6594925h2.3075204c.3620504.4826407.6692758.8602222.9216761 1.1327447.2524004.2725224.588692.589761 1.008875.9517157l-.3424257-3.7591565c-.5224163.5234003-.973301.8618015-1.3526542 1.0152036-.5690297.2301031-3.5432492-.0577076-4.6080311-.4484968-.4790839-.1758302-1.0443058-.5074357-1.6956659-.9948165zm-16.6755666-5c-.4457512 1.9542007-1.3544336 3.5209238-2.7260473 4.7001695-1.3716136 1.1792457-3.904409 2.6125225-7.5983861 4.2998305l14-3.5839951c-.7155682-.0806026-1.4032028-.4585098-2.0629037-1.1337217-.6597008-.6752119-1.1972552-2.1026397-1.6126629-4.2822832zm32.3511332 0c-.4154077 2.1796435-.9529621 3.6070713-1.6126629 4.2822832-.6597009.6752119-1.3473355 1.0531191-2.0629037 1.1337217l14 3.5839951c-3.6939771-1.687308-6.2267725-3.1205848-7.5983861-4.2998305-1.3716137-1.1792457-2.2802961-2.7459688-2.7260473-4.7001695zm-18.7487464-4c-.2990137.1974465-.4878946.3589749-.5666427.4845853-.0537255.0856972-.3384143.4775298-.3597778 1.1756513-.0066334.2167657.069308.6083636.2278241 1.1747937.3587206.1592789.6406865.2032195.8458979.1318218s.5041977-.3174648.8969591-.7382014c.0385589-.6427108.0385589-1.0636337 0-1.2627689-.0817901-.4223988-.3402112-.5691303-.4095437-.6277137-.1183616-.1000109-.3299339-.2127336-.6347169-.3381681zm5.1463596 0c-.304783.1254345-.5163553.2381572-.6347169.3381681-.0693325.0585834-.3277536.2053149-.4095437.6277137-.0385589.1991352-.0385589.6200581 0 1.2627689.3927614.4207366.6917477.6668037.8969591.7382014s.4871773.0274571.8458979-.1318218c.1585161-.5664301.2344575-.958028.2278241-1.1747937-.0213635-.6981215-.3060523-1.0899541-.3597778-1.1756513-.0787481-.1256104-.267629-.2871388-.5666427-.4845853zm-20.6386674-9c-.5361186.0846583-.9569316.2120754-1.2624389.3822512-.3055073.1701759-.6961984.4947886-1.1720735.9738382.6708102.538428 1.3277452.9109455 1.970805 1.1175525.6430598.2066071 1.6916699.3820598 3.1458304.5263581 1.3950298-.3024175 2.3856354-.5666552 2.9718167-.7927132s1.2233639-.4618202 1.9115479-.7072868c-1.9464455-.6187247-3.3664966-1.0153369-4.2601532-1.1898364-.8936566-.1744996-1.9954347-.2778875-3.3053344-.3101636zm36.1309752 0c-1.3098997.0322761-2.4116778.135664-3.3053344.3101636-.8936566.1744995-2.3137077.5711117-4.2601532 1.1898364.688184.2454666 1.3253666.4812288 1.9115479.7072868s1.5767869.4902957 2.9718167.7927132c1.4541605-.1442983 2.5027706-.319751 3.1458304-.5263581.6430598-.206607 1.2999948-.5791245 1.970805-1.1175525-.4758751-.4790496-.8665662-.8036623-1.1720735-.9738382-.3055073-.1701758-.7263203-.2975929-1.2624389-.3822512zm-30.8712472-6.9806015c-2.2785397-.1472208-4.6392781.5850108-5.5779933.7982019-1.3161717.298915-2.7292987.9901972-4.239381 2.0738467l-.8768661 1.3765617c4.6436873-2.1742119 8.1485423-3.1771288 10.5145652-3.0087508 2.3660228.168378 5.937907 1.7486253 10.7156525 4.740742l.7697823-.5554565c-2.2138473-1.9363537-3.9824478-3.1852752-5.3058016-3.7467645-1.041193-.4417706-3.4863903-1.5159742-5.999958-1.6783805zm25.6115192 0c-2.5135677.1624063-4.958765 1.2366099-5.999958 1.6783805-1.3233538.5614893-3.0919543 1.8104108-5.3058016 3.7467645l.7697823.5554565c4.7777455-2.9921167 8.3496297-4.572364 10.7156525-4.740742 2.3660229-.168378 5.8708779.8345389 10.5145652 3.0087508l-.8768661-1.3765617c-1.5100823-1.0836495-2.9232093-1.7749317-4.239381-2.0738467-.9387152-.2131911-3.2994536-.9454227-5.5779933-.7982019z" fill="#f0be2a"/></g><g fill="#f0be2a" transform="translate(44 13)"><path d="m57 0 15 21-15 21-15-21z"/><path d="m15 0 15 21-15 21-15-21z"/></g></g></svg>