<svg height="240" viewBox="0 0 160 240" width="160" xmlns="http://www.w3.org/2000/svg" xmlns:xlink="http://www.w3.org/1999/xlink"><defs><path id="a" d="m6 44.0429903c13.3671046-10.0286602 31.4186929-15.0429903 54.1547651-15.0429903 22.7360721 0 40.7876609 5.0143301 54.1547649 15.0429903v64.4699587c-17.291203 22.991367-35.6831927 34.487051-55.1759691 34.487051-19.4927763 0-37.2039633-11.495684-53.1335609-34.487051z"/><mask id="b" fill="#fff"><use fill="#fff" fill-rule="evenodd" xlink:href="#a"/></mask></defs><g fill="none" fill-rule="evenodd"><g transform="translate(20 43)"><g fill="#6d5710"><path d="m31 120h58v36l-29 19.440402-29-19.440402z"/><path d="m9 11.2148438c12-7.47656255 28.8333333-11.2148438 50.5-11.2148438s38.5 3.73828125 50.5 11.2148438l-10 43h-81z"/><path d="m0 39.626463c14.7741682-11.0843087 34.7259238-16.626463 59.8552667-16.626463s45.0810983 5.5421543 59.8552663 16.626463v71.25627c-19.111329 25.411511-39.4393181 38.117267-60.9839657 38.117267-21.5446475 0-41.1201699-12.705756-58.7265673-38.117267z"/></g><use fill="#3c3008" xlink:href="#a"/><path d="m55.9194643 136.88012c-2.000271-.798547-5.1693931-2.509934-9.5073661-5.134162-5.3445739-4.647443-8.5965549-7.899442-9.755943-9.755997s-1.592714-3.78392-1.2999779-5.782095c.5922943-.934634 1.2100882-1.740857 1.8533818-2.41867.6432937-.677814 1.4437437-1.039881 2.40135-1.086203.1011362-.594956.2244342-1.004261.369894-1.227916.1454598-.223654.4498769-.47199.9132513-.745008l2.1554509.745008v-.745008l-5.8399462-5.396705c-1.0133261-.881692-2.0706112-3.268524-3.1718553-7.1604968-1.1012441-3.8919726-2.5640732-10.4116269-4.3884872-19.5589628-.3629796-1.580249-.506227-2.6766467-.4297421-3.2891932.0589751-.4723158.288679-.9780072.6891115-1.5170742.0590164-.0794486 2.4769752 2.9435223 2.5966235 2.8016537.0100318-.0118948-.0999819-.2120688-.3300412-.600522l-.1373922-.2305558c-.4230097-.7061465-1.1327397-1.8619844-2.1291901-3.4675139l-1.4666343-3.708841c-.9613011-1.7081591-1.4419517-3.2247364-1.4419517-4.549732 0-1.3249955.4806506-2.528885 1.4419517-3.6116685.1985336-2.6407336 1.5529529-5.3565338 4.0632578-8.1474007s7.1459345-6.734588 13.9068887-11.8311632h1.0693169c.369766-.9922109.769211-1.8418121 1.1983348-2.5488034.4291238-.7069914 1.1874465-1.764839 2.274968-3.173543l2.7040448-.7787629c.694188-.8138363 1.4477552-2.0282361 2.2607016-3.6431994.8129464-1.6149632 1.8985398-4.0541582 3.2567801-7.3175849h1.6475112c1.3582403 3.2634267 2.4438337 5.7026217 3.2567801 7.3175849.8129464 1.6149633 1.5665136 2.8293631 2.2607016 3.6431994l2.7040448.7787629c1.0875215 1.408704 1.8458442 2.4665516 2.274968 3.173543.4291238.7069913.8285688 1.5565925 1.1983348 2.5488034h1.0693169c6.7609542 5.0965752 11.3965838 9.0402963 13.9068887 11.8311632s3.8647242 5.5066671 4.0632578 8.1474007c.9613011 1.0827835 1.4419517 2.286673 1.4419517 3.6116685 0 1.3249956-.4806506 2.8415729-1.4419517 4.549732l-1.4666343 3.708841c-.9964504 1.6055295-1.7061804 2.7613674-2.1291901 3.4675139l-.1373922.2305558c-.2300593.3884532-.340073.5886272-.3300412.600522.1196483.1418686 2.5376071-2.8811023 2.5966235-2.8016537.4004325.539067.6301364 1.0447584.6891115 1.5170742.0764849.6125465-.0667625 1.7089442-.4297421 3.2891932-1.824414 9.1473359-3.2872431 15.6669902-4.3884872 19.5589628-1.1012441 3.8919728-2.1585292 6.2788048-3.1718553 7.1604968l-5.8399462 5.396705v.745008l2.1554509-.745008c.4633744.273018.7677915.521354.9132513.745008.1454598.223655.2687578.63296.369894 1.227916.9576063.046322 1.7580563.408389 2.40135 1.086203.6432936.677813 1.2610875 1.484036 1.8533818 2.41867.2927361 1.998175-.1405898 3.92554-1.2999779 5.782095s-4.4113691 5.108554-9.755943 9.755997c-4.337973 2.624228-7.5070951 4.335615-9.5073661 5.134162-2.000271.798546-3.3604496 1.170031-4.0805357 1.114456-.7200861.055575-2.0802647-.31591-4.0805357-1.114456zm-.6105123-64.9519203c-4.7860213.2795813-8.1717428.5640054-10.1571646.8532725-1.9854217.289267-4.4454375.8565405-7.3800473 1.7018205-.4246308.2971201-.7106533.5437488-.8580676.7398863s-.2949001.5262996-.4424574.9904863c.1755242.2013261.386347.3738019.6324684.5174274.2461215.1436255.6693627.3411613 1.2697237.5926074 4.3504306-.680305 7.6846084-1.1674002 10.0025334-1.4612856 2.317925-.2938855 4.8269177-.5476351 7.5269782-.7612489l.3220582-1.0523147c.0011587-.357043-.061657-.6823438-.1884469-.9759022-.12679-.2935584-.369316-.6751414-.7275781-1.144749zm9.382096 0c-.3582621.4696076-.6007881.8511906-.7275781 1.144749-.1267899.2935584-.1896056.6188592-.1884469.9759022l.3220582 1.0523147c2.7000605.2136138 5.2090532.4673634 7.5269782.7612489 2.317925.2938854 5.6521028.7809806 10.0025334 1.4612856.600361-.2514461 1.0236022-.4489819 1.2697237-.5926074.2461214-.1436255.4569442-.3161013.6324684-.5174274-.1475573-.4641867-.2950431-.7943488-.4424574-.9904863s-.4334368-.4427662-.8580676-.7398863c-2.9346098-.84528-5.3946256-1.4125535-7.3800473-1.7018205-1.9854218-.2892671-5.3711433-.5736912-10.1571646-.8532725z" fill="#ffe86e" mask="url(#b)"/></g><path d="m15 0 15 21-15 21-15-21z" fill="#ffe86e" transform="translate(65 8)"/></g></svg>