<svg height="240" viewBox="0 0 160 240" width="160" xmlns="http://www.w3.org/2000/svg" xmlns:xlink="http://www.w3.org/1999/xlink"><defs><circle id="a" cx="63" cy="83" r="57"/><mask id="b" fill="#fff"><use fill="#fff" fill-rule="evenodd" xlink:href="#a"/></mask></defs><g fill="none" fill-rule="evenodd"><g transform="translate(17 43)"><g fill="#6f472f"><path d="m34 120h58v36l-29 19.440402-29-19.440402z"/><path d="m12 11.2148438c12-7.47656255 28.8333333-11.2148438 50.5-11.2148438s38.5 3.73828125 50.5 11.2148438l-10 43h-81z"/><circle cx="63" cy="83" r="63"/></g><use fill="#3d2719" xlink:href="#a"/><path d="m61.0020573 97.0671746c-.6104378-.5110268-1.4781074-1.0938849-2.6030086-1.7485743.3112249-1.4737264.5701238-2.4987575.7766968-3.0750932s.5316815-1.1806772.9753256-1.8130245c-3.7956441.6091532-6.7064734.7371273-8.7324879.3839222-2.0260144-.3532051-4.3381703-1.3917278-6.9364675-3.1155683l-5.8475005-5.6880722c.6868067 7.6478719 1.2712808 12.7762771 1.7534222 15.3852154.6399489 3.4628583 1.960535 8.2207583 2.4261498 10.3163123.9952024 4.479024 1.8529408 8.278877 2.5732152 11.399559l-.9052867.888149-.0832088-.041619c-.5044771-.257199-3.2222342-1.71158-5.9346264-4.504434-.9931472-1.022609-2.3489208-2.9687-4.0673208-5.838274-.9313065-7.021813-1.3969597-12.292734-1.3969597-15.8127625s.4656532-8.3878589 1.3969597-14.6034912l-1.3969597-1.7552764c.65405-.6796312 1.0150322-1.1882098 1.0829463-1.525736.4761478-2.3664029-.0212514-4.1942628 0-5.3280508.085426-4.5575756-.2471703-9.136077.7383851-12.3939379 1.4320032-4.7336429 4.0420431-8.84856 7.8301199-12.3447514 3.4259088-2.3093538 6.2067534-3.928662 8.3425337-4.8579247 2.1357802-.9292627 6.1377852-1.5938434 12.006015-1.9937421l.5283343.0370836c5.5807275.4033358 9.4066211 1.0555553 11.4776807 1.9566585 2.1357803.9292627 4.9166249 2.5485709 8.3425337 4.8579247 3.7880768 3.4961914 6.3981167 7.6111085 7.8301199 12.3447514.9855554 3.2578609.6529591 7.8363623.7383851 12.3939379.0212514 1.133788-.4761478 2.9616479 0 5.3280508.0679141.3375262.4288963.8461048 1.0829463 1.525736l-1.3969597 1.7552764c.9313065 6.2156323 1.3969597 11.0834627 1.3969597 14.6034912s-.4656532 8.7909495-1.3969597 15.8127625c-1.7184 2.869574-3.0741736 4.815665-4.0673208 5.838274-2.7123922 2.792854-5.4301493 4.247235-5.9346264 4.504434l-.0832088.041619-.9052867-.888149c.7202744-3.120682 1.5780128-6.920535 2.5732152-11.399559.4656148-2.095554 1.7862009-6.853454 2.4261498-10.3163123.4821414-2.6089383 1.0666155-7.7373435 1.7534222-15.3852154l-5.8475005 5.6880722c-2.5982972 1.7238405-4.9104531 2.7623632-6.9364675 3.1155683-2.0260145.3532051-4.9368438.225231-8.7324879-.3839222.4436441.6323473.7687526 1.2366888.9753256 1.8130245s.4654719 1.6013668.7766968 3.0750932c-1.1249012.6546894-1.9925708 1.2375475-2.6030086 1.7485743s-1.2764187.8935802-1.9979427 1.1476603c-.721524-.2540801-1.3875049-.6366335-1.9979427-1.1476603zm-13.0020573-26.519849c-1.4416692.4050739-2.7765202 1.1786177-4.004553 2.3206313-.2836629 1.4707768-.2836629 2.6239619 0 3.4595553.1981403.5836671 1.5066242 2.3865923 3.3431659 3.6903562 2.1073212 1.4959907 4.8501801 2.4954353 6.4018638 2.9502524 1.9359896.5674617 3.871618.8024153 5.8068852.7048608v-7.8932938c-.3280408-1.5168728-.7986482-2.6343231-1.4118223-3.3523508-.390194-.4569177-1.9032921-2.1584411-3.6595196-2.5558582-2.3835337-.5393702-5.2309238.3260052-6.47602.6758468zm30 0c-1.2450962-.3498416-4.0924863-1.215217-6.47602-.6758468-1.7562275.3974171-3.2693256 2.0989405-3.6595196 2.5558582-.6131741.7180277-1.0837815 1.835478-1.4118223 3.3523508v7.8932938c1.9352672.0975545 3.8708956-.1373991 5.8068852-.7048608 1.5516837-.4548171 4.2945426-1.4542617 6.4018638-2.9502524 1.8365417-1.3037639 3.1450256-3.1066891 3.3431659-3.6903562.2836629-.8355934.2836629-1.9887785 0-3.4595553-1.2280328-1.1420136-2.5628838-1.9155574-4.004553-2.3206313z" fill="#ffa672" mask="url(#b)"/></g><g fill="#ffa672" transform="translate(44 13)"><path d="m57 0 15 21-15 21-15-21z"/><path d="m15 0 15 21-15 21-15-21z"/></g></g></svg>