<svg height="240" viewBox="0 0 160 240" width="160" xmlns="http://www.w3.org/2000/svg"><g fill="none" fill-rule="evenodd"><g transform="translate(22 43)"><g fill="#4d5758"><path d="m29 120h58v36l-29 19.440402-29-19.440402z"/><path d="m7 11.2148438c12-7.47656255 28.8333333-11.2148438 50.5-11.2148438s38.5 3.73828125 50.5 11.2148438l-10 43h-81z"/><path d="m57.8908968 20c25.600235 0 47.6341012 15.269441 57.4908632 37.197588-11.462965 2.7131966-19.9908632 13.0119056-19.9908632 25.302412 0 12.4329687 8.7267412 22.827698 20.3890422 25.393004-9.649112 22.414355-31.9364707 38.106996-57.8890422 38.106996-25.9525714 0-48.23993026-15.692641-57.8908968-38.106742 11.6643633-2.565808 20.3908968-12.9604375 20.3908968-25.393258 0-12.2903603-8.5276951-22.5889706-19.98890295-25.3016488 9.85480205-21.9289102 31.88866805-37.1983512 57.48890295-37.1983512z"/></g><path d="m57.3351398 26c21.1726207 0 39.6008874 11.7499764 49.1197402 29.0848696-10.138572 4.9573739-17.1197402 15.3709825-17.1197402 27.4151304 0 11.8699145 6.7806469 22.156124 16.6798212 27.196509-9.6367991 16.906127-27.8273116 28.303491-48.6798212 28.303491-21.0194875 0-39.3341751-11.580625-48.91180647-28.709619 9.48041927-5.172165 15.91180647-15.2302074 15.91180647-26.790381 0-11.7318989-6.6238817-21.9167073-16.33578779-27.0185679 9.45382619-17.551455 28.00160929-29.4814321 49.33578779-29.4814321z" fill="#000" opacity=".446382"/><path d="m46.9903313 124.558605c-6.3732334-2.483351-10.0444065-5.225505-11.2775261-6.118236-1.8214705-1.318675-3.9819271-3.293139-6.4813698-5.923392-.8209569-7.815664-1.2314354-14.1437072-1.2314354-18.9841299 0-4.8404226.4104785-12.5580234 1.2314354-23.1528022.5797291-.3198932 1.0016596-.4798398 1.2657914-.4798398.2641317 0 .6300164.1599466 1.097654.4798398.497646 1.259336.8446742 2.2079292 1.0410847 2.8457798.1964105.6378505.342516 1.2907275.4383164 1.9586311 2.8844786 1.0129504 5.2388816 1.700463 7.0632091 2.0625376 1.8243274.3620747 4.5891837.6905827 8.2945689.9855239 1.6268346-.3626394 2.7844579-.7418027 3.4728699-1.1374899.6884119-.3956872 1.2487513-1.0039788 1.681018-1.8248748l-1.2089802.6336936c-.536896-.8591013-1.0282473-1.4939031-1.474054-1.9044054-.4458067-.4105024-.8856603-.6331615-1.3195608-.6679773-5.4523264-.3568479-9.2434334-.7198245-11.3733209-1.0889296-2.1298875-.3691052-3.2333251-.7139109-3.3103128-1.0344174-1.4643389-1.2129432-2.5012027-2.1325974-3.1105916-2.7589626s-1.0166098-1.1910249-1.2216626-1.693979l5.3808434-22.707593c.3729928-1.1502796.6885056-1.9824183.9465384-2.4964162s.5269769-.8460896.8068324-.9962752c2.4852542-.870204 5.0472818-1.4763048 7.6860827-1.8183025 2.6388008-.3419977 6.8428803-.587527 12.6122382-.736588l.5912465.0157642c5.4661867.1503445 9.473184.3906191 12.0209917.7208238 2.6388009.3419977 5.2008285.9480985 7.6860827 1.8183025.2798555.1501856.5487996.4822773.8068324.9962752s.5735456 1.3461366.9465384 2.4964162l5.3808434 22.707593c-.2050528.5029541-.6122737 1.0676138-1.2216626 1.693979s-1.6462527 1.5460194-3.1105916 2.7589626c-.0769877.3205065-1.1804253.6653122-3.3103128 1.0344174-2.1298875.3691051-5.9209945.7320817-11.3733209 1.0889296-.4339005.0348158-.8737541.2574749-1.3195608.6679773-.4458067.4105023-.937158 1.0453041-1.474054 1.9044054l-1.2089802-.6336936c.4322667.820896.9926061 1.4291876 1.681018 1.8248748.688412.3956872 1.8460353.7748505 3.4728699 1.1374899 3.7053852-.2949412 6.4702415-.6234492 8.2945689-.9855239 1.8243275-.3620746 4.1787305-1.0495872 7.0632091-2.0625376.0958004-.6679036.2419059-1.3207806.4383164-1.9586311.1964105-.6378506.5434387-1.5864438 1.0410847-2.8457798.4676376-.3198932.8335223-.4798398 1.097654-.4798398.2641318 0 .6860623.1599466 1.2657914.4798398.8209569 10.5947788 1.2314354 18.3123796 1.2314354 23.1528022 0 4.8404227-.4104785 11.1684659-1.2314354 18.9841299-2.4994427 2.630253-4.6598993 4.604717-6.4813698 5.923392-1.2331196.892731-4.9042927 3.634885-11.2775261 6.118236-2.0272147.78991-5.6971043 1.603709-11.0096687 2.441395-5.3125644-.837686-8.982454-1.651485-11.0096687-2.441395zm7.452589-6.474917c-1.0397398.006885-1.7675946.140394-2.1835645.400528-.3244947.202927-1.0626328.828519-1.4821632 1.929091-.0788438.206835-.0788438.561473 0 1.063915.4476492.780415 1.0559677 1.304687 1.8249555 1.572817.7689878.268129 1.8847612.270676 3.34732.007641l.0358024-1.580458c-.1122183-.707135-.2558771-1.253333-.4309763-1.638592-.1750992-.38526-.5455572-.97024-1.1113739-1.754942zm7.1141594 0c-.5658167.784702-.9362747 1.369682-1.1113739 1.754942-.1750992.385259-.318758.931457-.4309763 1.638592l.0358024 1.580458c1.4625588.263035 2.5783322.260488 3.34732-.007641.7689878-.26813 1.3773063-.792402 1.8249555-1.572817.0788438-.502442.0788438-.85708 0-1.063915-.4195304-1.100572-1.1576685-1.726164-1.4821632-1.929091-.4159699-.260134-1.1438247-.393643-2.1835645-.400528z" fill="#d6d6d6"/></g><g fill="#d8d8d8" transform="translate(31 3)"><path d="m83.8 12 15 21-15 21-15-21z"/><path d="m49.4 0 15 21-15 21-15-21z"/><path d="m15 12 15 21-15 21-15-21z"/></g></g></svg>