<svg height="240" viewBox="0 0 160 240" width="160" xmlns="http://www.w3.org/2000/svg"><g fill="none" fill-rule="evenodd"><g transform="translate(17 43)"><g fill="#004e9d"><path d="m34 120h58v55.440402l-29-17.680228-29 17.680228z"/><path d="m12 11.2148438c12-7.47656255 28.8333333-11.2148438 50.5-11.2148438s38.5 3.73828125 50.5 11.2148438l-10 43h-81z"/><path d="m0 40 20.9712362-20c14.3525092 4.7382813 28.1954305 4.7382813 41.5287638 0 13.6666667 4.7382813 28.4904121 4.7382813 44.471236 0l19.028764 20c-3.333333 13.8659304-5 25.0198076-5 33.4616317 0 8.4418242 1.666667 20.6212802 5 36.5383683l-63.5 42.619909-62.5-42.619909c3.33333333-16.6547536 5-28.8342097 5-36.5383683s-1.66666667-18.8580358-5-33.4616317z"/></g><path d="m6 44.0968304 18.9756453-18.0968304c12.9867463 4.2873936 25.5123962 4.2873936 37.5769498 0 12.3661675 4.2873936 25.7793078 4.2873936 40.2394209 0l17.218016 18.0968304c-3.016139 12.5464696-4.524208 22.6389608-4.524208 30.2774738s1.508069 18.0557629 4.524208 31.2517498l-57.4574369 40.373946-56.5525951-40.373946c3.01613841-13.8634573 4.5242076-24.2807072 4.5242076-31.2517498s-1.50806919-17.0635338-4.5242076-30.2774738z" fill="#000" opacity=".446382"/><path d="m62.9999997 17c1.9954768 3.076049 3.377718 5.3710443 4.1467234 6.884986.1966009.5007176.0911055.7192523-.316486.6556042l2.5698734 5.0593119 1.3509369-.0395185c3.5365192 3.4618907 6.286164 6.019634 8.2489343 7.6732298 1.8616697 1.8544671 3.7628908 3.9295961 5.7036633 6.2253868 2.4178995 1.3956132 4.3109493 2.9802458 5.6791496 4.7538977 1.9879178 2.4967019 2.9333107 5.2171923 2.8361788 8.1614714 1.1860705 1.0669353 1.7797459 2.2380455 1.7810263 3.5133306.0006506.988301-.9180211 2.2769699-1.40024 3.9985552-.0940885.3359084-.1912596.7101364-.284394 1.0899655l-.1093679.4563895c-.2307911.9855953-.4150426 1.9205839-.4276235 2.2299085.229392 3.5373561-.024005 7.0508022-.5370007 9.9993068-.9409112 5.4080002-2.8522422 12.0989016-5.733993 20.0727043l-.0003806-.0015297-.2463289.31965c-3.908513 5.025312-7.1382123 8.586241-9.6890979 10.682786l-.2528259.204773c-2.6726734 2.13218-7.1122557 4.853205-13.318747 8.163074v4.009656c6.2360787-2.947548 10.9358025-5.794524 14.0991715-8.540928 3.0613248-2.65781 6.547286-6.839276 10.4578836-12.5444l.3924752-.5755911c2.1796986 1.8548251 4.4104922 5.2767981 6.692381 10.2659191-4.4615873 4.572414-9.3895808 9.72042-14.7839805 15.444018s-11.0137102 8.312526-16.8579314 7.766783c-5.8442206.545743-11.4635311-2.043185-16.8579308-7.766783s-10.3223932-10.871604-14.7839805-15.444018c2.2818888-4.989121 4.5126824-8.411094 6.692381-10.2659191l.3924752.5755911c3.9105976 5.705124 7.3965588 9.88659 10.4578836 12.5444 3.163369 2.746404 7.8630928 5.59338 14.0991715 8.540928v-4.009656c-6.2064913-3.309869-10.6460736-6.030894-13.318747-8.163074-2.5891524-2.06555-5.903127-5.694736-9.9419238-10.887559l-.2473289-.31965-.284321-.7915742c-2.7231542-7.6253334-4.5395051-14.0518669-5.4490526-19.2796004-.5129957-2.9485046-.7663927-6.4619507-.5370007-9.9993068-.0125809-.3093246-.1968324-1.2443132-.4276235-2.2299085l-.1093679-.4563895c-.0931344-.3798291-.1903055-.7540571-.284394-1.0899655-.4822189-1.7215853-1.4008906-3.0102542-1.40024-3.9985552.0012804-1.2752851.5949558-2.4463953 1.7810263-3.5133306-.0971319-2.9442791.848261-5.6647695 2.8361788-8.1614714 1.3682003-1.7736519 3.2612501-3.3582845 5.6791496-4.7538977 1.9407725-2.2957907 3.8419936-4.3709197 5.7036633-6.2253868 1.9627703-1.6535958 4.7124151-4.2113391 8.2489343-7.6732298l1.3509369.0395185 2.5698734-5.0593119c-.4075915.0636481-.5130869-.1548866-.316486-.6556042.7688366-1.5136092 2.1506396-3.8079292 4.145409-6.8829597zm3.8979315 76.4110564c-.3086733 1.445238-.4834768 2.6584746-.5244107 3.63971s.0565654 1.6210982.2924978 1.9195885c.8109244.9663616 1.8663902 1.6363531 3.1663975 2.0099751.8467702.243361 2.2848412.728576 3.9335213.654907.5883083-.026288 1.559722-.212682 2.9142411-.559183-.1915819.444981-.4049874.799098-.6402167 1.062354-.2352293.263255-.6771146.663287-1.325656 1.200097-.5977065.22433-1.0986257.353014-1.5027573.386053-.1364089.011151-.0862948-.115084-.2239812-.108707-.6198013.028709-1.4260087.126794-2.0271953.119019-.2065999-.002672-.1356401-.139014-.3066127-.156265-.4281039-.043196-1.0104219.0049-1.2664643-.041205-.4100838-.073843-.557581-.439326-.9070527-.605574-.3440719-.163678-.8715088-.428151-1.5823108-.793418-.5429588 1.97203-.7177624 3.450782-.5244107 4.436257.1933516.985475.8395191 1.90917 1.9385025 2.771086.121508-.4724.2765889-.790838.4652427-.955315.850683-.741664 1.6847283-1.28916 2.3581643-1.698234l.3505351-.209739c.3883557-.229461.7010707-.406971.9010435-.546897.7288767-.510012 1.3301099-.322836 1.6818713-.589392.3263225-.247279.1946261-.755419.451869-.939169 1.2517434-.894125 2.2780329-1.459265 3.0788687-1.695419 1.1158646-1.467735 1.8143405-2.625154 2.0954276-3.4722558.2810871-.8471022.3873073-2.1147674.3186605-3.8029955-.7124116.7975843-1.4226627 1.2852169-2.1307533 1.462898-.9056299.2272496-2.0034003-.2097692-4.0250315.1298167-.5489656.0353654-1.4542086-.5911895-1.809962-.6166899-.7273608-.0521373-2.0277872-.4771674-2.3516838-1.2242806-1.5167413-.5874924-2.4495226-1.1798332-2.7983439-1.7770225zm-7.7958624 0c-.3488213.5971893-1.2816026 1.1895301-2.7983439 1.7770225-.3238966.7471132-1.624323 1.1721433-2.3516838 1.2242806-.3557534.0255004-1.2609964.6520553-1.809962.6166899-2.0216312-.3395859-3.1194016.0974329-4.0250315-.1298167-.7080906-.1776811-1.4183417-.6653137-2.1307533-1.462898-.0686468 1.6882281.0375734 2.9558933.3186605 3.8029955.2810871.8471018.979563 2.0045208 2.0954276 3.4722558.8008358.236154 1.8271253.801294 3.0788687 1.695419.2572429.18375.1255465.69189.451869.939169.3517614.266556.9529946.07938 1.6818713.589392.1999728.139926.5126878.317436.9010435.546897l.3505351.209739c.673436.409074 1.5074813.95657 2.3581643 1.698234.1886538.164477.3437347.482915.4652427.955315 1.0989834-.861916 1.7451509-1.785611 1.9385025-2.771086.1933517-.985475.0185481-2.464227-.5244107-4.436257-.710802.365267-1.2382389.62974-1.5823108.793418-.3494717.166248-.4969689.531731-.9070527.605574-.2560424.046105-.8383604-.001991-1.2664643.041205-.1709726.017251-.1000128.153593-.3066127.156265-.6011866.007775-1.407394-.09031-2.0271953-.119019-.1376864-.006377-.0875723.119858-.2239812.108707-.4041316-.033039-.9050508-.161723-1.5027573-.386053-.6485414-.53681-1.0904267-.936842-1.325656-1.200097-.2352293-.263256-.4486348-.617373-.6402167-1.062354 1.3545191.346501 2.3259328.532895 2.9142411.559183 1.6486801.073669 3.0867511-.411546 3.9335213-.654907 1.3000073-.373622 2.3554731-1.0436135 3.1663975-2.0099751.2359324-.2984903.3334317-.9383531.2924978-1.9195885s-.2157374-2.194472-.5244107-3.63971zm10.4531725-8.089949c-.2155624.6721536-.2316185 1.1917695-.0481683 1.5588477.0381115.372024.1585951.8717727.3614506 1.4992461-2.1341062 1.8994988-3.2665004 3.0971428-3.3971827 3.5929321-.0966692.3667488.4615339-.0606424 1.461523-.4634877.2345642-.0944941.6187784-.1474248 1.1526426-.1587922l2.6142913 2.061203c.4953463.0803508.889999.1829479 1.1839581.3077915.2939592.1248436.6782572.3530645 1.1528941.6846626.7205369-.1439845 1.2575983-.2028871 1.6111842-.1767079.3535858.0261792.8146009.1589787 1.3830452.3983984.4049274-.2876299.7505316-.4845306 1.0368124-.590702.2862808-.1061713.7911042-.224664 1.5144704-.355478.7611681-.4310091 1.3251014-.7280571 1.6918-.8911441.3666985-.163087.7267657-.2769826 1.0802014-.3416869.429152-1.3537589.5677458-2.3518385.4157814-2.9942389-.1519644-.6424005-.7260848-1.4854257-1.7223611-2.5290757-.5523915.4386333-1.0408654.7518355-1.4654217.9396066-.4245564.1877712-1.3888438.2699599-2.8928624.2465662-1.2152957-.2931979-2.3210276-.6255617-3.3171957-.9970915s-2.2684557-.9684795-3.8168628-1.7908493zm-13.1104826 0c-1.5484071.8223698-2.8206947 1.4193195-3.8168628 1.7908493s-2.1019.7038936-3.3171957.9970915c-1.5040186.0233937-2.468306-.058795-2.8928624-.2465662-.4245563-.1877711-.9130302-.5009733-1.4654217-.9396066-.9962763 1.04365-1.5703967 1.8866752-1.7223611 2.5290757-.1519644.6424004-.0133706 1.64048.4157814 2.9942389.3534357.0647043.7135029.1785999 1.0802014.3416869.3666986.163087.9306319.460135 1.6918.8911441.7233662.130814 1.2281896.2493067 1.5144704.355478.2862808.1061714.631885.3030721 1.0368124.590702.5684443-.2394197 1.0294594-.3722192 1.3830452-.3983984.3535859-.0261792.8906473.0327234 1.6111842.1767079.4746369-.3315981.8589349-.559819 1.1528941-.6846626.2939591-.1248436.6886118-.2274407 1.1839581-.3077915l2.6142913-2.061203c.5338642.0113674.9180784.0642981 1.1526426.1587922.9999891.4028453 1.5581922.8302365 1.461523.4634877-.1306823-.4957893-1.2630765-1.6934333-3.3971827-3.5929321.2028555-.6274734.3233391-1.1272221.3614506-1.4992461.1834502-.3670782.1673941-.8866941-.0481683-1.5588477zm-2.5760122-8.6232323c-1.5079634.9301053-2.5864496 1.5404289-3.2354587 1.8309707-.6490091.2905419-1.3973005.4980116-2.2448739.6224092l-2.9822926-.5155672c-1.5459679.3074035-2.4606113.7811853-2.74393 1.4213455-.2833186.6401602-.2833186 1.9000642 0 3.7797119.6955125-.0095552 1.169645.0099018 1.4223975.0583709.2527526.0484692.3518613.1389399.297326.2714121.1388716.0372733.4453139.1282583.9193269.2729549.4740131.1446966 1.0402658.3201103 1.6987583.526241 1.4231095-.0758986 2.6342054-.2513122 3.6332878-.526241.9990823-.2749288 2.4231107-.8246528 4.2720851-1.6491722h.6292773c.0850933-.4223853.1871711-.7656253.3062332-1.0297201.1190622-.2640949.3253504-.6048492.6188646-1.0222631-.2514204-.2989434-.4063561-.5210273-.464807-.6662517-.1463769-.3636809-.0972868-.7208678-.0782833-.920821.030386-.3197206.2966412-.6874318.7987656-1.1031338v-.442025c-.1381709-.3176695-.4044261-.5394106-.7987656-.6652231-.3943396-.1258125-1.0769766-.2068118-2.0479112-.242998zm18.262507 0c-.9709346.0361862-1.6535716.1171855-2.0479112.242998-.3943395.1258125-.6605947.3475536-.7987656.6652231v.442025c.5021244.415702.7683796.7834132.7987656 1.1031338.0190035.1999532.0680936.5571401-.0782833.920821-.0584509.1452244-.2133866.3673083-.464807.6662517.2935142.4174139.4998024.7581682.6188646 1.0222631.1190621.2640948.2211399.6073348.3062332 1.0297201h.6292773c1.8489744.8245194 3.2730028 1.3742434 4.2720851 1.6491722.9990824.2749288 2.2101783.4503424 3.6332878.526241.6584925-.2061307 1.2247452-.3815444 1.6987583-.526241.474013-.1446966.7804553-.2356816.9193269-.2729549-.0545353-.1324722.0445734-.2229429.297326-.2714121.2527525-.0484691.726885-.0679261 1.4223975-.0583709.2833186-1.8796477.2833186-3.1395517 0-3.7797119-.2833187-.6401602-1.1979621-1.113942-2.74393-1.4213455l-2.9822926.5155672c-.8475734-.1243976-1.5958648-.3318673-2.2448739-.6224092-.6490091-.2905418-1.7274953-.9008654-3.2354587-1.8309707zm13.8154931-9.1761099-.151258.0065504-12.8687485 1.6397152c-.5821874.2631296-1.1435492.4291316-1.6840854.4980058-.5405362.0688743-1.3692906.1454452-2.4862632.2297126-.2393787.8104714-.7710921 1.3402404-1.5951401 1.5893069-.5374772.1624511-1.0722771-.2409091-2.0618785-.540313-.3517557-.1064237-1.0515466-.2213718-2.0993726-.3448444v.7918649c0-.0647371 2.0708091.0285759 2.3686335.0932925.7754374.1685009 1.6873592.8051827 2.9966487 1.2715357.3261487.1161702.8961201.2047883 1.7099141.2658544 4.5580688-.0466228 8.0652407-.2144042 10.5215157-.5033442 2.4562749-.2889401 4.1892004-.7375693 5.1987763-1.3458877.9930148-1.630085 1.3840121-2.6564103 1.1729917-3.0789761-.2110203-.4225658-.6020176-.6112066-1.1729917-.5659226zm-46.9152269.572473c-.2110204.4225658.1799769 1.4488911 1.1729917 3.0789761 1.0095759.6083184 2.7425014 1.0569476 5.1987763 1.3458877 2.456275.28894 5.9634469.4567214 10.5215157.5033442.813794-.0610661 1.3837654-.1496842 1.7099141-.2658544 1.3092895-.466353 2.2212113-1.1030348 2.9966487-1.2715357.2978244-.0647166 2.3686335-.1580296 2.3686335-.0932925v-.7918649c-1.047826.1234726-1.7476169.2384207-2.0993726.3448444-.9896014.2994039-1.5244013.7027641-2.0618785.540313-.824048-.2490665-1.3557614-.7788355-1.5951401-1.5893069-1.1169726-.0842674-1.945727-.1608383-2.4862632-.2297126-.5405362-.0688742-1.101898-.2348762-1.6840854-.4980058l-12.8687485-1.6397152c-.5709741-.045284-.9619714.1433568-1.1729917.5659226z" fill="#c7d9ff"/></g><g fill="#c7d9ff" transform="translate(44 13)"><path d="m57 0 15 21-15 21-15-21z"/><path d="m15 0 15 21-15 21-15-21z"/></g></g></svg>