<svg height="240" viewBox="0 0 160 240" width="160" xmlns="http://www.w3.org/2000/svg"><g fill="none" fill-rule="evenodd"><g transform="translate(26 43)"><g fill="#396989"><path d="m25 120h58v55.440402l-29-17.680228-29 17.680228z"/><path d="m3 11.2148438c12-7.47656255 28.8333333-11.2148438 50.5-11.2148438s38.5 3.73828125 50.5 11.2148438l-10 43h-81z"/><path d="m0 37.5c13.3289037-11.6666667 31.3289037-17.5 54-17.5s40.6710963 5.8333333 54 17.5c-1.622646 36.1488106-1.622646 64.482144 0 85-12.8002544 16.78317-39.2525183 30.119909-55.0182857 30.119909-15.7657675 0-40.8610985-13.783951-52.9817143-30.119909 1.84841053-20.815998 1.84841053-49.1493311 0-85z"/></g><path d="m7 41.8347266c11.4567096-10.5564844 26.9284078-15.8347266 46.4150943-15.8347266 19.4866866 0 34.9583847 5.2782422 46.4150944 15.8347266-1.394727 32.7089448-1.394727 58.3461214 0 76.9115294-11.0023151 15.186109-33.7390618 27.253744-47.2903504 27.253744s-35.1216989-12.472291-45.5398383-27.253744c1.58878054-18.8351792 1.58878054-44.4723556 0-76.9115294z" fill="#000" opacity=".446382"/><path d="m54 17 .0004812 3.0924158c1.0540967 3.2510117 1.9002219 5.835348 2.5383757 7.7530088l.1850373.5547904.0878482.2624235c.8341496 2.4885176 1.37401 4.0020591 1.6195813 4.5406243 1.2063126 1.0096216 2.1416015 1.955799 2.8058667 2.8385323.6642651.8827334 1.3795271 2.1299515 2.1457859 3.7416545 5.1279362 5.6002038 8.9999351 9.8784319 11.6159967 12.8346841 2.6160615 2.9562523 4.9524192 5.693711 7.0090731 8.212376l3.2892987 7.3559524c.2850847 2.3734571.4691901 3.9703366.5523162 4.7906386.0831261.8203021-.2397309 1.3540448-.9685712 1.6012283l1.3667616 2.1718073c-.2106982 4.2992802-.1831529 7.6269546.082636 9.9830232.265789 2.3560686.5386801 4.5007603.8186733 6.4340752l-.7619683 1.7774374c-.0505112 1.8970168.1169987 3.5770054.5025296 5.0399655.9575531.1782984 1.7507309 2.1437964 2.3795335 5.8964954l-1.3022268 2.726736c.0584219 3.516647.2640633 5.991687.6169242 7.42512.2041969.829513 1.0143993-.306309 1.5216561.656147.246203.467139.5443333 1.880348.894391 4.239629-2.9899282 3.547634-5.486049 5.805137-7.4883623 6.772508-2.0023133.967372-4.1983164 1.18122-6.5880095.641546l1.7287583-29.2528327c-.712289 3.0013067-1.3799553 5.3372887-2.0029989 7.0079437s-1.138557 2.507302-1.5465402 2.509939l-4.924959 14.216514c-4.0390641 3.327046-7.1436992 5.507012-9.3139054 6.539896-1.9306035.918849-4.2182147 1.451786-6.8628336 1.598812l-.0011494.036909-.5-.015-.5.015-.0001558-.036854c-2.6450395-.146948-4.9329819-.679903-6.8638272-1.598867-2.1702062-1.032884-5.2748413-3.21285-9.3139054-6.539896l-4.924959-14.216514c-.4079832-.002637-.9234966-.839284-1.5465402-2.509939s-1.2907099-4.006637-2.0029989-7.0079437l1.7287583 29.2528327c-2.3896931.539674-4.5856962.325826-6.5880095-.641546-2.0023133-.967371-4.4984341-3.224874-7.4883623-6.772508.3500577-2.359281.648188-3.77249.894391-4.239629.5072568-.962456 1.3174592.173366 1.5216561-.656147.3528609-1.433433.5585023-3.908473.6169242-7.42512l-1.3022268-2.726736c.6288026-3.752699 1.4219804-5.718197 2.3795335-5.8964954.3855309-1.4629601.5530408-3.1429487.5025296-5.0399655l-.7619683-1.7774374c.2799932-1.9333149.5528843-4.0780066.8186733-6.4340752.2657889-2.3560686.2933342-5.683743.082636-9.9830232l1.3667616-2.1718073c-.7288403-.2471835-1.0516973-.7809262-.9685712-1.6012283.0831261-.820302.2672315-2.4171815.5523162-4.7906386l3.2892987-7.3559524c2.0566539-2.518665 4.3930116-5.2561237 7.0090731-8.212376 2.6160616-2.9562522 6.4880605-7.2344803 11.6159967-12.8346841.7662588-1.611703 1.4815208-2.8589211 2.1457859-3.7416545.6642652-.8827333 1.5995541-1.8289107 2.8058667-2.8385323.2455713-.5385652.7854317-2.0521067 1.6195813-4.5406243l.0878482-.2624235.1850373-.5547904c.6383488-1.9182468 1.4847962-4.5035767 2.5393422-7.7559895l-.0004853-3.0894351c.1712268.5302853.3380624 1.0464941.5005068 1.5486263.1614308-.5021322.3282664-1.018341.4994932-1.5486263zm-5.0828086 94.758439c-1.1042652.147295-2.5116726.513001-4.222222 1.097118-.0440816.696718-.0260795 1.21235.0540063 1.546896.0800857.334546.2676089.677463.5625696 1.028753.4162608.385451.8584346.625751 1.3265213.720898s1.2393515.101502 2.3137944.019064l4.048139-.022168.499-.002.501-.002267v-4.530349c-.1701279-.003818-.3369831-.007084-.5005655-.009801l-.0780473.001354-.4213872.008447-.0015278-.016501c-1.7845757-.01785-3.1450027.035669-4.0812808.160556zm9.1656172 0c-.936103-.124864-2.296196-.178386-4.0802792-.160566l-.0025294 4.551127 4.048139.022168c.9767663.074943 1.7029721.076505 2.1786176.004684l.1351768-.023748c.4680867-.095147.9102605-.335447 1.3265213-.720898.2949607-.35129.4824839-.694207.5625696-1.028753.0800858-.334546.0980879-.850178.0540063-1.546896-1.7105494-.584117-3.1179568-.949823-4.222222-1.097118zm-15.9888788-26.6067359c-.9695632 0-2.2528981.0293669-3.850005.0881009-1.2790344.4067284-2.156107.7797497-2.6312178 1.119064s-.927936.9160785-1.3584756 1.7302926c.6705055.9946778 1.2114266 1.6681399 1.6227634 2.0203865s.9999638.6460684 1.7658811.8814655c.9222473.4098756 1.7920802.6494523 2.6094987.7187299.8174184.0692777 2.035596.0066637 3.6545326-.1878421 1.8391166-.5242109 3.0820616-1.0135589 3.728835-1.468044s1.2657311-1.2734888 1.856873-2.4570109c-.2394297-.4969159-.5131672-.8832513-.8212125-1.1590062s-.9119901-.6751-1.8118343-1.1980353c-2.2075293-.058734-3.7960755-.0881009-4.7656386-.0881009zm22.8121404 0c-.9695631 0-2.5581093.0293669-4.7656386.0881009-.8998442.5229353-1.503789.9222804-1.8118343 1.1980353s-.5817828.6620903-.8212125 1.1590062c.5911419 1.1835221 1.2100996 2.0025258 1.856873 2.4570109s1.8897184.9438331 3.728835 1.468044c1.6189366.1945058 2.8371142.2571198 3.6545326.1878421.8174185-.0692776 1.6872514-.3088543 2.6094987-.7187299.7659173-.2353971 1.3545443-.5292189 1.7658811-.8814655s.9522579-1.0257087 1.6227634-2.0203865c-.4305396-.8142141-.8833648-1.3909783-1.3584756-1.7302926s-1.3521834-.7123356-2.6312178-1.119064c-1.5971069-.058734-2.8804418-.0881009-3.850005-.0881009z" fill="#e8f7fa"/></g><path d="m15 0 15 21-15 21-15-21z" fill="#e8f7fa" transform="translate(65 8)"/></g></svg>