<svg height="240" viewBox="0 0 160 240" width="160" xmlns="http://www.w3.org/2000/svg"><g fill="none" fill-rule="evenodd"><path d="m32 57.3209354c11.7432098-14.2139569 27.6926103-21.3209354 47.8482015-21.3209354 20.1555915 0 36.1049915 7.1069785 47.8482015 21.3209354v108.2467506l-47.9235036 38.432314-47.7728994-38.432314z" fill="#625549"/><path d="m46 67.9823818c8.2520419-9.9882545 19.4598057-14.9823818 33.6232913-14.9823818s25.3712497 4.9941273 33.6232917 14.9823818v84.0109422l-33.6762071 27.006676-33.5703759-27.006676z" fill="#7e7468"/><path d="m80 125.380337 2.7356266-1.182636.3369609 1.20321c.928864 1.386359 1.8404427 2.240868 2.7347361 2.563529.8942933.32266 2.2728007.484134 4.1355222.48442 2.2952004-.491623 4.0872064-1.17876 5.376018-2.061412 1.2888117-.882652 2.9436836-2.556135 4.9646162-5.020447v-1.441032c-.4415022-.683313-.9886249-1.203846-1.6413686-1.561597s-1.8054405-.768844-3.4580904-1.233279c-3.1181279.788051-5.5099555 1.525448-7.1754828 2.212191-1.6655273.686742-3.4231645 1.660282-5.2729116 2.920621l-2.7356266 1.599292zm-15.184021-8.249244c-1.6526499.464435-2.8053467.875528-3.4580904 1.233279s-1.1998664.878284-1.6413682 1.561597v1.441032c2.0209322 2.464312 3.6758041 4.137795 4.9646158 5.020447 1.2888116.882652 3.0808176 1.569789 5.376018 2.061412 1.8627215-.000286 3.2412289-.16176 4.1355222-.48442.8942934-.322661 1.8058721-1.17717 2.7347361-2.563529l.3369609-1.20321 2.7356266 1.182636v-1.51714l-2.7356266-1.599292c-1.8497471-1.260339-3.6073843-2.233879-5.2729116-2.920621-1.6655273-.686743-4.0573549-1.42414-7.1754828-2.212191zm13.3594504 19.479862c-.4041519-.19911-.8193506-.645191-1.2455961-1.338243v-1.726745c-4.2898163 1.389563-7.1590094 2.036722-8.6075793 1.941476-4.2394175-.278747-6.0300773-3.008778-6.8744108-4.05387-1.2770849-1.580739-2.720304-4.460201-4.3296573-8.638388l-3.9120427-4.636434c-.2748576-2.733817-.2748576-4.711122 0-5.931916.2748577-1.220794.5654269-2.047231.8717076-2.47931l1.4386535-2.534067c-.0770304-.303196-.0770304-.558496 0-.7659.0770304-.207405.4003478-.487076.9699522-.839016.496814-3.013192 1.0686997-5.219117 1.7156568-6.6177742.6469572-1.398657 1.907936-3.1552025 3.7829364-5.2696366 1.1755657-1.7354769 2.5335053-3.2518994 4.0738191-4.5492674 1.5403137-1.297368 4.2761073-3.2289955 8.2073809-5.7948825 1.0852334-.5358762 1.9583171-.8817079 2.619251-1.037495.660934-.1557872 1.6991004-.2689492 3.1144993-.3394863l.3199341.0170344c1.2529506.0711644 2.1844723.1786484 2.7945652.3224519.6609339.1557871 1.5340176.5016188 2.619251 1.037495 3.9312736 2.565887 6.6670672 4.4975145 8.2073809 5.7948825 1.5403138 1.297368 2.8982534 2.8137905 4.0738191 4.5492674 1.8750004 2.1144341 3.1359797 3.8709796 3.7829367 5.2696366.646957 1.3986572 1.218842 3.6045822 1.715657 6.6177742.569604.35194.892921.631611.969952.839016.07703.207404.07703.462704 0 .7659l1.438653 2.534067c.306281.432079.59685 1.258516.871708 2.47931.274857 1.220794.274857 3.198099 0 5.931916l-3.912043 4.636434c-1.609353 4.178187-3.0525723 7.057649-4.3296572 8.638388-.8443335 1.045092-2.6349933 3.775123-6.8744108 4.05387-1.4485699.095246-4.317763-.551913-8.6075793-1.941476v1.726745c-.4262455.693052-.8414442 1.139133-1.2455961 1.338243-.4041519.199111-1.0123421.328792-1.8245706.389045-.8122285-.060253-1.4204187-.189934-1.8245706-.389045z" fill="#ffddb6"/></g></svg>