<svg viewBox="0 0 1024 1024" xmlns="http://www.w3.org/2000/svg"><path d="m-25.63-25.63h1075.25v1075.25h-1075.25z" fill="#004538"/><g fill="#0f1"><path d="m705.06 601.88c-.19 35.7-.5 90.85-.69 124.06-.18 32.37-13.75 63.42-38.02 84.85-.77.68-1.54 1.34-2.32 2.01-18.84 15.92-40.73 28.06-65.7 36.37-24.97 8.33-50.86 12.49-77.64 12.49-52.86-.7-97.73-15.01-134.66-42.88-36.92-27.86-64.98-67.69-84.16-119.45-19.18-51.75-28.78-112.39-28.78-181.9 0-73.83 10.32-137.18 30.95-190.03 20.63-52.83 51.4-93.56 92.31-122.17 40.9-28.58 90.67-42.88 149.31-42.88 38.36 0 74.73 6.34 109.13 19 34.37 12.67 64.6 33.67 90.67 62.98 24.42 27.48 43.43 63.7 57.05 108.65 1.66 5.46 6.73 9.18 12.44 9.18s-2.17-185.7-2.17-185.7c-21-11.57-47.42-21.72-79.27-30.4-31.86-8.7-66.6-15.74-104.24-21.18-37.66-5.43-76.38-8.15-116.19-8.15-85.43 0-159.44 16.12-222.06 48.32-62.63 32.23-110.77 77.65-144.42 136.29-33.67 58.62-50.49 128.5-50.49 209.57s16.99 151.31 51.03 210.66c34.02 59.37 81.81 105.18 143.34 137.38 61.53 32.22 133.57 48.32 216.1 48.32 58.64 0 111.84-7.06 159.63-21.18 47.77-14.12 88.85-32.03 123.26-53.75 34.37-21.72 60.26-43.43 77.64-65.15v-118.11c0-11.19-5.79-21.58-15.3-27.47-24.83-15.38-56.82-22.75-97.32-22.75-15.02 0-30.92.96-49.41 3.01z"/><path d="m341.07 664.16c110.4-100.16 347.17-202.33 493.25-140.57 19.07 8.32 36.85 20.12 50.97 35.49 9.28 9.68 16.43 21.6 20.31 34.36 9.79 31.5 1.69 64.99-19.92 88.64 2.95-13.65 4.19-27.55 2.17-41.01-1.83-12.79-6.44-24.39-13.04-33.54-3.84-5.36-8.65-10.23-14.1-13.84-68.44-45.43-203.39-51.53-519.65 70.46z"/><path d="m833.93 348.42c5.57 21.4 8.5 44.72-7.36 63.1s-42.18 26.69-65.72 26.39c-24.54-.1-47.87-11.51-66.69-26.34-17.03-13.29-31.2-28.56-44.98-44.46-19.71-23-37.2-46.29-55.09-70.22-23.79-34.01-53.09-65.53-97.71-65.88-4.85 0-9.79.33-14.77 1.35 8.15-6.66 18.37-10.53 28.63-12.62 34.29-6.94 69.53 9.05 95.11 31.24 28.89 25.63 55.24 55.35 80.62 83.95 18 19.71 35.19 40.71 57.83 54.58 12.84 7.84 29.3 10.32 43.8 9.2 27.45-1.9 40.19-20.38 46.35-50.29z"/><ellipse cx="632.79" cy="399.07" rx="51.24" ry="36.4" transform="matrix(.38332833 -.92361214 .92361214 .38332833 21.62 830.52)"/><ellipse cx="783.11" cy="439.5" rx="36.13" ry="25.66" transform="matrix(.44994258 -.89305749 .89305749 .44994258 38.26 941.12)"/></g></svg>